<svg width="801" height="767" viewBox="0 0 801 767" fill="none" xmlns="http://www.w3.org/2000/svg">
<path d="M800 0H1V765H800V0Z" fill="white"/>
<path d="M247.953 82.3241C242.996 77.8311 239.875 71.3411 239.875 64.1151C239.875 56.8891 242.996 50.399 247.953 45.894" fill="#009DDD"/>
<path d="M247.953 82.3241C242.996 77.8311 239.875 71.3411 239.875 64.1151C239.875 56.8891 242.996 50.399 247.953 45.894" stroke="#009DDD" stroke-width="0.036324" stroke-miterlimit="4.9939"/>
<path d="M285.779 77.8C285.779 77.362 286.141 77.012 286.578 77.012C287.015 77.012 287.377 77.362 287.377 77.8C287.377 78.238 287.028 78.588 286.578 78.588C286.129 78.601 285.779 78.238 285.779 77.8ZM286.566 78.413C286.903 78.413 287.178 78.138 287.178 77.812C287.178 77.475 286.903 77.212 286.566 77.212C286.229 77.212 285.967 77.475 285.967 77.812C285.967 78.138 286.229 78.413 286.566 78.413ZM286.466 78.15H286.304V77.45H286.591C286.653 77.45 286.716 77.45 286.766 77.487C286.828 77.525 286.853 77.587 286.853 77.662C286.853 77.737 286.803 77.812 286.728 77.85L286.853 78.15H286.678L286.566 77.875H286.441V78.15H286.466ZM286.466 77.762H286.553C286.591 77.762 286.628 77.762 286.653 77.75C286.678 77.737 286.691 77.7 286.691 77.675C286.691 77.65 286.678 77.612 286.653 77.6C286.628 77.587 286.578 77.587 286.553 77.587H286.466V77.762Z" fill="#009DDD"/>
<path d="M247.964 82.317C252.334 86.27 258.114 88.672 264.469 88.672C278.04 88.672 289.051 77.675 289.051 64.1C289.051 50.525 278.04 39.527 264.469 39.527C258.114 39.527 252.334 41.929 247.964 45.883C243.008 50.387 239.887 56.881 239.887 64.1C239.874 71.331 242.995 77.825 247.964 82.317Z" fill="#009DDD"/>
<path d="M255.917 61.497C255.817 60.622 255.68 59.746 255.505 58.895H240.449C240.636 58.007 240.873 57.143 241.16 56.293H254.793C254.494 55.404 254.144 54.528 253.757 53.69H242.221C242.646 52.789 243.12 51.926 243.645 51.088H252.346C251.785 50.174 251.148 49.311 250.474 48.485H245.517C246.279 47.559 247.103 46.684 247.989 45.883C243.632 41.929 237.839 39.527 231.485 39.527C217.914 39.527 206.902 50.525 206.902 64.1C206.902 77.675 217.914 88.672 231.485 88.672C237.839 88.672 243.62 86.27 247.989 82.317C248.876 81.516 249.712 80.64 250.474 79.714H245.517C244.843 78.888 244.219 78.025 243.645 77.112H252.346C252.871 76.274 253.345 75.41 253.77 74.509H242.234C241.834 73.671 241.485 72.795 241.185 71.907H254.818C255.106 71.056 255.343 70.193 255.53 69.305C255.717 68.454 255.855 67.578 255.942 66.702C256.029 65.851 256.079 64.976 256.079 64.1C256.042 63.224 256.004 62.361 255.917 61.497Z" fill="#007CC2"/>
<path d="M277.527 69.868C277.527 69.43 277.877 69.067 278.314 69.067C278.751 69.067 279.113 69.417 279.113 69.868C279.113 70.318 278.763 70.656 278.314 70.656C277.877 70.668 277.527 70.305 277.527 69.868ZM278.314 70.481C278.651 70.481 278.913 70.205 278.913 69.88C278.913 69.542 278.638 69.28 278.314 69.28C277.977 69.28 277.715 69.555 277.715 69.88C277.715 70.205 277.989 70.481 278.314 70.481ZM278.202 70.218H278.039V69.517H278.339C278.401 69.517 278.464 69.517 278.514 69.555C278.576 69.592 278.601 69.655 278.601 69.73C278.601 69.805 278.551 69.88 278.476 69.918L278.601 70.218H278.414L278.301 69.943H278.177V70.218H278.202ZM278.202 69.818H278.289C278.326 69.818 278.364 69.818 278.389 69.805C278.414 69.793 278.426 69.755 278.426 69.73C278.426 69.705 278.414 69.667 278.389 69.655C278.364 69.642 278.314 69.642 278.289 69.642H278.202V69.818Z" fill="white"/>
<path d="M231.46 60.697H235.33L233.071 71.206H229.213L231.46 60.697Z" fill="#003473"/>
<path d="M229.962 58.445C229.737 59.408 229.625 59.958 229.325 61.135C227.478 60.346 224.993 59.946 223.096 61.135C221.298 62.273 220.699 64.062 220.823 66.027C220.961 66.977 221.672 67.903 222.671 68.304C224.406 68.942 226.079 68.717 227.927 67.766C227.665 68.954 227.465 69.88 227.241 70.731C225.018 71.344 222.921 71.557 220.699 70.819C218.714 70.13 217.103 68.366 216.966 66.439C216.516 63.349 218.002 60.171 221.011 58.72C223.807 57.469 227.003 57.681 229.962 58.445Z" fill="#003473"/>
<path d="M267.777 64.1619C267.777 65.5139 268.676 66.4389 270.699 67.1399C272.26 67.6779 272.497 67.8279 272.497 68.3159C272.497 68.9789 271.81 69.2799 270.299 69.2799C269.151 69.2799 268.09 69.1539 266.866 68.8539L266.342 71.3189L266.517 71.3439L267.216 71.4569C267.44 71.4939 267.778 71.5189 268.214 71.5439C269.126 71.6069 269.825 71.6319 270.324 71.6319C274.369 71.6319 276.242 70.5059 276.242 68.0659C276.242 66.6019 275.456 65.7389 273.545 65.1009C271.935 64.5629 271.748 64.4379 271.748 63.9369C271.748 63.3619 272.384 63.0609 273.62 63.0609C274.369 63.0609 275.406 63.1239 276.379 63.2239L276.929 60.7469C275.942 60.6339 274.432 60.5339 273.558 60.5339C269.238 60.5589 267.753 62.1979 267.777 64.1619Z" fill="#003473"/>
<path d="M264.992 68.5159C264.805 69.4169 264.631 70.3049 264.531 71.2439H260.872L261.148 69.6669L261.234 69.5419C260.135 70.7059 258.988 71.4819 256.965 71.4819C254.731 71.4819 253.52 69.9179 253.52 67.8659C253.52 67.1649 253.581 66.7649 253.818 65.6639L254.843 60.7839H258.588L257.526 65.6889C257.414 66.2139 257.276 66.7269 257.276 67.2779C257.276 67.9029 257.902 68.5159 258.963 68.4789C260.573 68.4789 261.359 67.1529 261.646 65.6139L262.758 60.7969H266.728L264.992 68.5159Z" fill="#003473"/>
<path d="M253.819 60.659L252.596 63.562L251.972 63.449C250.935 63.299 249.999 64.062 249.525 64.85C248.626 66.827 248.339 69.067 247.864 71.194H243.869L244.056 70.468C244.756 67.215 245.654 63.937 246.166 60.684H249.674C249.762 61.235 249.5 61.748 249.45 62.298C250.211 61.623 250.96 60.259 253.782 60.634L253.819 60.659Z" fill="#003473"/>
<path d="M254.656 59.846C251.884 59.483 251.097 60.847 250.361 61.522C250.411 60.972 250.66 60.459 250.586 59.908H247.14C246.64 63.161 245.766 66.439 245.08 69.692L244.893 70.4061H248.813C249.287 68.2791 249.562 66.052 250.448 64.087C250.91 63.299 251.834 62.536 252.845 62.686L253.47 62.811L254.656 59.846Z" fill="white"/>
<path d="M232.409 59.896H236.166L233.932 70.406H230.174L232.409 59.896Z" fill="white"/>
<path d="M230.811 57.594C230.586 58.557 230.474 59.108 230.174 60.284C228.327 59.496 225.855 59.095 223.944 60.284C222.147 61.422 221.547 63.211 221.672 65.176C221.81 66.127 222.521 67.0531 223.52 67.4531C225.255 68.0911 226.928 67.853 228.776 66.915C228.514 68.104 228.314 69.0421 228.089 69.8931C225.88 70.5061 223.77 70.718 221.547 69.98C219.575 69.292 217.952 67.5031 217.827 65.5891C217.378 62.4981 218.863 59.3331 221.872 57.8821C224.669 56.6181 227.852 56.831 230.811 57.594Z" fill="white"/>
<path d="M268.627 63.312C268.627 64.663 269.526 65.589 271.549 66.289C273.097 66.827 273.346 66.977 273.346 67.465C273.346 68.129 272.66 68.429 271.149 68.429C270 68.429 268.939 68.291 267.716 68.003L267.191 70.468L267.366 70.493L268.078 70.606C268.302 70.643 268.64 70.668 269.077 70.693C269.988 70.756 270.7 70.781 271.186 70.781C275.231 70.781 277.104 69.655 277.104 67.215C277.104 65.751 276.318 64.888 274.407 64.237C272.797 63.699 272.61 63.574 272.61 63.074C272.61 62.498 273.246 62.198 274.482 62.198C275.231 62.198 276.268 62.261 277.242 62.361L277.791 59.883C276.792 59.771 275.294 59.671 274.42 59.671C270.1 59.708 268.615 61.347 268.627 63.312Z" fill="white"/>
<path d="M265.842 67.666C265.654 68.566 265.48 69.455 265.38 70.393H261.834L262.134 68.692H262.096C260.998 69.855 259.849 70.643 257.827 70.643C255.604 70.643 254.381 69.079 254.381 67.027C254.381 66.327 254.443 65.926 254.68 64.813L255.704 59.933H259.45L258.388 64.825C258.276 65.351 258.139 65.876 258.139 66.414C258.139 67.04 258.763 67.653 259.824 67.616C261.435 67.616 262.396 66.289 262.671 64.75L263.757 59.933H267.577L265.842 67.666Z" fill="white"/>
<path d="M245.243 60.659L244.02 63.562L243.395 63.449C242.359 63.299 241.423 64.062 240.949 64.85C240.05 66.827 239.762 69.067 239.288 71.194H235.293L235.48 70.468C236.179 67.215 237.078 63.937 237.59 60.684H241.098C241.186 61.235 240.924 61.748 240.874 62.298C241.635 61.623 242.384 60.259 245.206 60.634C245.193 60.634 245.243 60.659 245.243 60.659Z" fill="#003473"/>
<path d="M244.905 62.774L244.281 62.6479C243.27 62.4979 242.346 63.261 241.884 64.05C240.997 66.027 240.723 68.2409 240.248 70.3679H236.328L236.503 69.655C237.19 66.402 238.076 63.124 238.563 59.871H242.009C242.096 60.421 241.846 60.934 241.784 61.485C242.533 60.809 243.32 59.445 246.079 59.808L244.905 62.774Z" fill="white"/>
<path d="M127.78 149.07H54.4199V194.97H127.78V149.07Z" fill="#0058A0"/>
<path d="M126.91 149.93H55.25V194.11H126.91V149.93Z" fill="white"/>
<path d="M124.64 152.07H57.4102V192.19H124.64V152.07Z" fill="#0058A0"/>
<path d="M59.6504 172.87H76.9904L73.8404 188.7L59.6504 172.87Z" fill="white"/>
<path d="M59.6504 172.87H76.9904L73.8404 188.7L59.6504 172.87Z" stroke="#0058A0" stroke-width="0.00597296"/>
<path d="M82.9805 155L79.9805 170.55H97.0305L82.9805 155Z" fill="white"/>
<path d="M82.9805 155L79.9805 170.55H97.0305L82.9805 155Z" stroke="#0058A0" stroke-width="0.00597296"/>
<path d="M112.449 172.96H108.369L106.319 183.48C106.229 183.55 105.979 185.57 104.109 185.41C101.849 185.22 102.549 183 102.549 183L104.349 172.95L100.349 172.96L98.3391 183.53C98.3391 183.53 97.0791 188.65 103.739 189.04C103.739 189.04 109.359 189.84 110.609 182.98C111.919 175.72 112.449 172.96 112.449 172.96Z" fill="white"/>
<path d="M112.449 172.96H108.369L106.319 183.48C106.229 183.55 105.979 185.57 104.109 185.41C101.849 185.22 102.549 183 102.549 183L104.349 172.95L100.349 172.96L98.3391 183.53C98.3391 183.53 97.0791 188.65 103.739 189.04C103.739 189.04 109.359 189.84 110.609 182.98C111.919 175.72 112.449 172.96 112.449 172.96Z" stroke="#0058A0" stroke-width="0.00597296"/>
<path d="M110.951 183.49C110.951 183.49 109.251 188.71 116.051 189.02C116.051 189.02 121.741 188.91 121.731 183.86C121.731 183.86 122.161 180.87 117.371 178.83C117.371 178.83 116.361 178.38 116.311 177.37C116.251 176.36 117.331 176.17 117.331 176.17C117.331 176.17 118.071 175.97 118.471 176.42C118.761 176.74 118.721 177.97 118.721 177.97H122.521C122.521 177.97 124.011 172.74 117.841 172.67C117.841 172.67 113.261 172.39 112.271 176.85C112.271 176.85 111.641 179.5 113.741 180.87C115.851 182.24 116.281 182.28 117.051 182.83C117.821 183.38 117.901 185.41 116.311 185.52C114.521 185.64 114.891 183.49 114.861 183.49H110.951Z" fill="white"/>
<path d="M110.951 183.49C110.951 183.49 109.251 188.71 116.051 189.02C116.051 189.02 121.741 188.91 121.731 183.86C121.731 183.86 122.161 180.87 117.371 178.83C117.371 178.83 116.361 178.38 116.311 177.37C116.251 176.36 117.331 176.17 117.331 176.17C117.331 176.17 118.071 175.97 118.471 176.42C118.761 176.74 118.721 177.97 118.721 177.97H122.521C122.521 177.97 124.011 172.74 117.841 172.67C117.841 172.67 113.261 172.39 112.271 176.85C112.271 176.85 111.641 179.5 113.741 180.87C115.851 182.24 116.281 182.28 117.051 182.83C117.821 183.38 117.901 185.41 116.311 185.52C114.521 185.64 114.891 183.49 114.861 183.49H110.951Z" stroke="#0058A0" stroke-width="0.00597296"/>
<path d="M60.0703 170.56L80.2903 154.85L77.3603 170.56H60.0703Z" fill="white"/>
<path d="M60.0703 170.56L80.2903 154.85L77.3603 170.56H60.0703Z" stroke="#0058A0" stroke-width="0.00597296"/>
<path d="M91.729 172.88H95.859L93.579 185.01L97.929 185.02L97.259 188.65H88.709L91.729 172.88Z" fill="white"/>
<path d="M91.729 172.88H95.859L93.579 185.01L97.929 185.02L97.259 188.65H88.709L91.729 172.88Z" stroke="#0058A0" stroke-width="0.00597296"/>
<path d="M82.909 176.66L82.269 180.1H83.769C86.349 180.05 86.249 178.18 86.249 178.18C86.069 176.63 84.479 176.66 84.479 176.66H82.909ZM79.499 172.87L84.809 172.89C84.809 172.89 88.639 173.02 89.859 175.69C91.079 178.36 89.399 181.27 89.089 181.51C88.779 181.75 87.669 184.3 81.509 183.95L80.489 188.79H76.459L79.499 172.87Z" fill="white"/>
<path d="M82.909 176.66L82.269 180.1H83.769C86.349 180.05 86.249 178.18 86.249 178.18C86.069 176.63 84.479 176.66 84.479 176.66H82.909ZM79.499 172.87L84.809 172.89C84.809 172.89 88.639 173.02 89.859 175.69C91.079 178.36 89.399 181.27 89.089 181.51C88.779 181.75 87.669 184.3 81.509 183.95L80.489 188.79H76.459L79.499 172.87Z" stroke="#0058A0" stroke-width="0.00597296"/>
<path d="M560.08 181.39L600.25 80" stroke="#BCBCBC" stroke-width="1.6846" stroke-miterlimit="10"/>
<path d="M189.98 210.54L139.57 173.08" stroke="#BCBCBC" stroke-width="2.1163" stroke-miterlimit="10"/>
<path d="M305.479 164.94L253.609 98.13" stroke="#BCBCBC" stroke-width="2.1163" stroke-miterlimit="10"/>
<path d="M170.47 361.72L91.4297 335.29" stroke="#BCBCBC" stroke-width="1.6846" stroke-miterlimit="10"/>
<path d="M400.381 116.11L412.281 54.04" stroke="#BCBCBC" stroke-width="1.6846" stroke-miterlimit="10"/>
<path d="M190.1 537.6L84.7305 519.04" stroke="#BCBCBC" stroke-width="2.1163" stroke-miterlimit="10"/>
<path d="M647.641 49.08C647.641 63.97 635.58 76.04 620.69 76.04C605.8 76.04 593.73 63.98 593.73 49.09V49.08C593.73 34.19 605.79 22.12 620.68 22.12C635.57 22.12 647.641 34.18 647.641 49.07C647.641 49.07 647.641 49.07 647.641 49.08Z" fill="#FF9900"/>
<path d="M584.35 22.13C569.55 22.22 557.57 34.26 557.57 49.08C557.57 63.96 569.65 76.03 584.52 76.03C591.5 76.03 597.87 73.37 602.66 69.01H602.67C603.65 68.12 604.57 67.15 605.41 66.12H599.89C599.15 65.23 598.48 64.3 597.88 63.34H607.4C607.98 62.41 608.5 61.45 608.97 60.45H596.3C595.87 59.52 595.49 58.58 595.17 57.62H610.09C610.99 54.93 611.48 52.06 611.48 49.07C611.48 47.09 611.27 45.16 610.86 43.3H594.38C594.58 42.34 594.84 41.4 595.15 40.47H610.07C609.74 39.48 609.35 38.52 608.91 37.58H596.29C596.75 36.61 597.26 35.66 597.84 34.75H607.36C606.73 33.74 606.03 32.78 605.27 31.86H599.96C600.78 30.89 601.68 29.99 602.66 29.14C597.87 24.78 591.5 22.12 584.52 22.12C584.47 22.13 584.41 22.13 584.35 22.13Z" fill="#CC0000"/>
<path d="M644.93 63.17C645.08 63.17 645.22 63.21 645.36 63.28C645.5 63.35 645.61 63.4601 645.69 63.6001C645.77 63.7401 645.81 63.89 645.81 64.04C645.81 64.19 645.77 64.33 645.69 64.47C645.61 64.61 645.51 64.72 645.37 64.79C645.23 64.87 645.09 64.9 644.94 64.9C644.79 64.9 644.64 64.86 644.51 64.79C644.37 64.71 644.26 64.61 644.19 64.47C644.11 64.33 644.08 64.19 644.08 64.04C644.08 63.89 644.12 63.7401 644.2 63.6001C644.28 63.4601 644.39 63.35 644.53 63.28C644.64 63.21 644.79 63.17 644.93 63.17ZM644.93 63.31C644.81 63.31 644.69 63.34 644.57 63.4C644.45 63.46 644.36 63.55 644.3 63.67C644.23 63.79 644.2 63.91 644.2 64.03C644.2 64.16 644.23 64.28 644.3 64.39C644.37 64.5 644.46 64.59 644.57 64.66C644.69 64.72 644.81 64.76 644.93 64.76C645.06 64.76 645.18 64.73 645.29 64.66C645.4 64.6 645.49 64.51 645.56 64.39C645.62 64.28 645.66 64.15 645.66 64.03C645.66 63.9 645.63 63.78 645.56 63.67C645.5 63.55 645.4 63.46 645.29 63.4C645.17 63.34 645.05 63.31 644.93 63.31ZM644.55 64.5201V63.58H644.87C644.98 63.58 645.06 63.59 645.11 63.61C645.16 63.63 645.2 63.66 645.23 63.7C645.26 63.74 645.27 63.79 645.27 63.84C645.27 63.91 645.25 63.9701 645.2 64.0201C645.15 64.0701 645.09 64.1 645.01 64.11C645.04 64.12 645.07 64.14 645.09 64.16C645.13 64.2 645.17 64.2601 645.23 64.3501L645.34 64.53H645.16L645.08 64.3801C645.01 64.2601 644.96 64.19 644.92 64.16C644.89 64.14 644.85 64.1301 644.8 64.1301H644.71V64.53L644.55 64.5201ZM644.7 63.9901H644.88C644.97 63.9901 645.03 63.98 645.06 63.95C645.09 63.92 645.11 63.8901 645.11 63.8501C645.11 63.8201 645.1 63.8 645.09 63.78C645.07 63.76 645.05 63.74 645.03 63.73C645 63.72 644.95 63.7101 644.88 63.7101H644.71L644.7 63.9901Z" fill="#FCB340"/>
<path d="M593.477 56.8139L593.837 54.3739C593.637 54.3739 593.357 54.4539 593.097 54.4539C592.097 54.4539 591.977 53.924 592.047 53.534L593.027 48.6239H594.547L594.857 45.854H593.427L593.717 44.174H590.727C590.667 44.234 589.037 53.614 589.037 54.754C589.037 56.444 589.987 57.194 591.327 57.184C592.367 57.184 593.187 56.8939 593.477 56.8139Z" fill="#000066"/>
<path d="M594.377 52.1639C594.377 56.2239 597.057 57.1839 599.337 57.1839C601.447 57.1839 602.547 56.6939 602.547 56.6939L603.057 53.9239C603.057 53.9239 601.277 54.6439 599.837 54.6439C596.757 54.6439 597.297 52.3439 597.297 52.3439L603.217 52.3639C603.217 52.3639 603.597 50.5039 603.597 49.7439C603.597 47.8539 602.567 45.5339 599.417 45.5339C596.517 45.5339 594.377 48.6439 594.377 52.1639ZM599.417 48.1039C601.037 48.1039 600.737 49.9239 600.737 50.0739H597.547C597.547 49.8839 597.847 48.1039 599.417 48.1039Z" fill="#000066"/>
<path d="M617.588 56.8139L618.098 53.6839C618.098 53.6839 616.688 54.3939 615.728 54.3939C613.688 54.3939 612.878 52.8439 612.878 51.1739C612.878 47.7839 614.628 45.9239 616.578 45.9239C618.038 45.9239 619.218 46.7439 619.218 46.7439L619.688 43.7039C619.688 43.7039 618.298 42.7039 616.808 42.6939C612.318 42.6739 609.758 45.8039 609.758 51.1939C609.758 54.7739 611.658 57.2039 615.088 57.2039C616.048 57.2039 617.588 56.8139 617.588 56.8139Z" fill="#000066"/>
<path d="M577.688 45.584C575.718 45.584 574.208 46.214 574.208 46.214L573.788 48.684C573.788 48.684 575.038 48.174 576.918 48.174C577.988 48.174 578.768 48.294 578.768 49.164C578.768 49.694 578.668 49.884 578.668 49.884C578.668 49.884 577.828 49.814 577.438 49.814C574.638 49.814 572.348 50.874 572.348 54.064C572.348 56.584 574.058 57.154 575.118 57.154C577.148 57.154 577.948 55.874 577.988 55.874L577.968 56.934H580.498L581.628 49.034C581.628 45.694 578.708 45.584 577.688 45.584ZM578.128 52.004C578.188 52.484 578.008 54.764 576.278 54.764C575.388 54.764 575.158 54.084 575.158 53.684C575.158 52.894 575.588 51.954 577.688 51.954C578.168 51.954 578.048 51.984 578.128 52.004Z" fill="#000066"/>
<path d="M584.316 57.114C584.966 57.114 588.656 57.274 588.656 53.464C588.656 49.894 585.236 50.604 585.236 49.174C585.236 48.464 585.796 48.234 586.816 48.234C587.216 48.234 588.776 48.364 588.776 48.364L589.136 45.834C589.136 45.834 588.126 45.604 586.486 45.604C584.366 45.604 582.206 46.454 582.206 49.354C582.206 52.644 585.796 52.314 585.796 53.694C585.796 54.614 584.796 54.694 584.016 54.694C582.676 54.694 581.476 54.234 581.466 54.254L581.086 56.764C581.166 56.784 581.906 57.114 584.316 57.114Z" fill="#000066"/>
<path d="M641.26 43.2839L640.74 47.1539C640.74 47.1539 639.66 45.6639 637.97 45.6639C634.79 45.6639 633.15 48.8339 633.15 52.4739C633.15 54.8239 634.32 57.1339 636.71 57.1339C638.43 57.1339 639.38 55.9339 639.38 55.9339L639.25 56.9539H642.04L644.23 43.3039L641.26 43.2839ZM640.03 50.7939C640.03 52.3139 639.28 54.3339 637.72 54.3339C636.69 54.3339 636.2 53.4639 636.2 52.1039C636.2 49.8739 637.2 48.4139 638.46 48.4139C639.5 48.4139 640.03 49.1239 640.03 50.7939Z" fill="#000066"/>
<path d="M562.147 56.964L563.897 46.664L564.157 56.964H566.137L569.827 46.664L568.197 56.964H571.137L573.397 43.294L568.727 43.254L565.947 51.624L565.867 43.294H561.587L559.297 56.964H562.147Z" fill="#000066"/>
<path d="M606.368 56.984C607.208 52.234 607.498 48.484 609.938 49.264C610.288 47.424 611.118 45.824 611.498 45.044C611.498 45.044 611.378 44.864 610.628 44.864C609.338 44.864 607.628 47.474 607.628 47.474L607.888 45.864H605.218L603.428 56.984H606.368Z" fill="#000066"/>
<path d="M623.598 45.584C621.628 45.584 620.118 46.214 620.118 46.214L619.698 48.684C619.698 48.684 620.948 48.174 622.828 48.174C623.898 48.174 624.678 48.294 624.678 49.164C624.678 49.694 624.578 49.884 624.578 49.884C624.578 49.884 623.738 49.814 623.348 49.814C620.548 49.814 618.258 50.874 618.258 54.064C618.258 56.584 619.968 57.154 621.028 57.154C623.048 57.154 623.858 55.874 623.898 55.874L623.878 56.934H626.408L627.538 49.034C627.538 45.694 624.618 45.584 623.598 45.584ZM624.038 51.994C624.088 52.474 623.918 54.754 622.188 54.754C621.298 54.754 621.068 54.074 621.068 53.674C621.068 52.884 621.498 51.944 623.598 51.944C624.078 51.954 623.958 51.984 624.038 51.994Z" fill="#000066"/>
<path d="M630.45 56.984C630.91 53.494 631.76 48.584 634.02 49.264C634.37 47.424 634.03 47.434 633.28 47.434C631.99 47.434 631.71 47.484 631.71 47.484L631.97 45.874H629.3L627.508 56.994L630.45 56.984Z" fill="#000066"/>
<path d="M594.221 55.94L594.581 53.5C594.381 53.5 594.101 53.58 593.841 53.58C592.841 53.58 592.731 53.05 592.791 52.66L593.601 47.68H595.121L595.491 44.98H594.061L594.351 43.3H591.481C591.421 43.36 589.791 52.7401 589.791 53.8801C589.791 55.5701 590.741 56.32 592.081 56.31C593.121 56.31 593.931 56.02 594.221 55.94Z" fill="white"/>
<path d="M595.131 51.29C595.131 55.35 597.811 56.31 600.091 56.31C602.201 56.31 603.121 55.84 603.121 55.84L603.631 53.0701C603.631 53.0701 602.031 53.78 600.581 53.78C597.501 53.78 598.041 51.48 598.041 51.48H603.871C603.871 51.48 604.251 49.62 604.251 48.86C604.251 46.97 603.311 44.67 600.161 44.67C597.261 44.67 595.131 47.78 595.131 51.29ZM600.161 47.2401C601.781 47.2401 601.481 49.0601 601.481 49.2101H598.291C598.301 49.0201 598.601 47.2401 600.161 47.2401Z" fill="white"/>
<path d="M618.33 55.94L618.84 52.81C618.84 52.81 617.43 53.52 616.47 53.52C614.43 53.52 613.62 51.97 613.62 50.3C613.62 46.91 615.37 45.05 617.32 45.05C618.78 45.05 619.96 45.87 619.96 45.87L620.43 42.83C620.43 42.83 618.69 42.13 617.2 42.13C613.89 42.13 610.66 45 610.66 50.4C610.66 53.98 612.4 56.34 615.83 56.34C616.79 56.33 618.33 55.94 618.33 55.94Z" fill="white"/>
<path d="M578.44 44.71C576.47 44.71 574.96 45.34 574.96 45.34L574.54 47.81C574.54 47.81 575.79 47.3 577.67 47.3C578.74 47.3 579.52 47.4199 579.52 48.2899C579.52 48.8199 579.42 49.0099 579.42 49.0099C579.42 49.0099 578.58 48.94 578.19 48.94C575.71 48.94 573.1 50 573.1 53.19C573.1 55.71 574.81 56.28 575.87 56.28C577.89 56.28 578.77 54.97 578.81 54.96L578.72 56.06H581.25L582.38 48.16C582.38 44.82 579.45 44.71 578.44 44.71ZM579.05 51.1499C579.1 51.6299 578.75 53.8999 577.02 53.8999C576.13 53.8999 575.9 53.22 575.9 52.82C575.9 52.03 576.33 51.09 578.43 51.09C578.92 51.08 578.97 51.1299 579.05 51.1499Z" fill="white"/>
<path d="M585.06 56.24C585.71 56.24 589.4 56.4 589.4 52.59C589.4 49.03 585.98 49.73 585.98 48.3C585.98 47.59 586.54 47.36 587.56 47.36C587.96 47.36 589.52 47.49 589.52 47.49L589.88 44.96C589.88 44.96 588.87 44.73 587.23 44.73C585.11 44.73 582.95 45.58 582.95 48.48C582.95 51.77 586.54 51.44 586.54 52.82C586.54 53.74 585.54 53.82 584.76 53.82C583.42 53.82 582.22 53.36 582.21 53.38L581.83 55.89C581.91 55.91 582.65 56.24 585.06 56.24Z" fill="white"/>
<path d="M642.11 42.4399L641.49 46.2799C641.49 46.2799 640.41 44.7899 638.72 44.7899C636.09 44.7899 633.9 47.9599 633.9 51.5999C633.9 53.9499 635.07 56.2599 637.46 56.2599C639.18 56.2599 640.13 55.0599 640.13 55.0599L640 56.0799H642.79L644.98 42.4299L642.11 42.4399ZM640.77 49.9299C640.77 51.4499 640.02 53.4699 638.46 53.4699C637.43 53.4699 636.94 52.5999 636.94 51.2399C636.94 49.0199 637.94 47.5499 639.2 47.5499C640.24 47.5499 640.77 48.2499 640.77 49.9299Z" fill="white"/>
<path d="M562.9 56.09L564.65 45.79L564.91 56.09H566.89L570.58 45.79L568.95 56.09H571.89L574.15 42.42H569.61L566.78 50.8L566.63 42.42H562.44L560.15 56.09H562.9Z" fill="white"/>
<path d="M607.11 56.11C607.95 51.36 608.1 47.5 610.09 48.21C610.44 46.37 610.78 45.66 611.16 44.88C611.16 44.88 610.98 44.84 610.61 44.84C609.32 44.84 608.37 46.6 608.37 46.6L608.63 44.99H605.96L604.17 56.11H607.11Z" fill="white"/>
<path d="M624.957 44.71C622.987 44.71 621.477 45.34 621.477 45.34L621.057 47.81C621.057 47.81 622.307 47.3 624.187 47.3C625.257 47.3 626.037 47.4199 626.037 48.2899C626.037 48.8199 625.937 49.0099 625.937 49.0099C625.937 49.0099 625.097 48.94 624.707 48.94C622.227 48.94 619.617 50 619.617 53.19C619.617 55.71 621.327 56.28 622.387 56.28C624.407 56.28 625.287 54.97 625.327 54.96L625.237 56.06H627.767L628.9 48.16C628.9 44.82 625.977 44.71 624.957 44.71ZM625.577 51.1499C625.627 51.6299 625.277 53.8999 623.547 53.8999C622.657 53.8999 622.427 53.22 622.427 52.82C622.427 52.03 622.857 51.09 624.957 51.09C625.437 51.08 625.487 51.1299 625.577 51.1499Z" fill="white"/>
<path d="M631.21 56.11C632.05 51.36 632.2 47.5 634.19 48.21C634.54 46.37 634.88 45.66 635.26 44.88C635.26 44.88 635.08 44.84 634.71 44.84C633.42 44.84 632.469 46.6 632.469 46.6L632.729 44.99H630.06L628.27 56.11H631.21Z" fill="white"/>
<path d="M644.921 54.39C645.071 54.39 645.211 54.43 645.351 54.5C645.491 54.57 645.601 54.68 645.681 54.82C645.761 54.96 645.801 55.1 645.801 55.26C645.801 55.41 645.761 55.55 645.681 55.69C645.601 55.83 645.501 55.94 645.361 56.01C645.221 56.09 645.081 56.12 644.931 56.12C644.781 56.12 644.631 56.08 644.501 56.01C644.361 55.93 644.251 55.83 644.181 55.69C644.101 55.55 644.061 55.41 644.061 55.26C644.061 55.11 644.101 54.96 644.181 54.82C644.261 54.68 644.371 54.57 644.511 54.5C644.631 54.43 644.771 54.39 644.921 54.39ZM644.921 54.54C644.801 54.54 644.681 54.57 644.561 54.64C644.441 54.7 644.351 54.79 644.291 54.91C644.221 55.03 644.191 55.15 644.191 55.27C644.191 55.39 644.221 55.52 644.291 55.63C644.351 55.74 644.441 55.83 644.561 55.9C644.671 55.96 644.801 56 644.921 56C645.051 56 645.171 55.97 645.281 55.9C645.391 55.84 645.491 55.75 645.551 55.63C645.611 55.51 645.651 55.39 645.651 55.27C645.651 55.14 645.621 55.02 645.551 54.91C645.491 54.79 645.391 54.7 645.281 54.64C645.161 54.57 645.041 54.54 644.921 54.54ZM644.541 55.75V54.81H644.861C644.971 54.81 645.051 54.82 645.101 54.84C645.151 54.86 645.191 54.89 645.221 54.93C645.251 54.97 645.261 55.02 645.261 55.07C645.261 55.14 645.241 55.2 645.191 55.25C645.141 55.3 645.081 55.33 645.001 55.34C645.031 55.35 645.061 55.37 645.081 55.39C645.121 55.43 645.161 55.49 645.221 55.58L645.331 55.76H645.141L645.061 55.61C644.991 55.49 644.941 55.42 644.901 55.39C644.871 55.37 644.831 55.36 644.781 55.36H644.691V55.76L644.541 55.75ZM644.691 55.22H644.871C644.961 55.22 645.021 55.21 645.051 55.18C645.081 55.15 645.101 55.12 645.101 55.08C645.101 55.05 645.091 55.03 645.081 55.01C645.061 54.99 645.041 54.97 645.021 54.96C644.991 54.95 644.941 54.94 644.871 54.94H644.701L644.691 55.22Z" fill="white"/>
<path d="M449.829 48.5999H373.619V0.189941H449.829V48.5999Z" fill="white"/>
<path d="M374.889 40.73H448.559V47.34H374.889V40.73Z" fill="#F7B600"/>
<path d="M374.889 8.05995H448.559V1.44995H374.889V8.05995Z" fill="#1A1F71"/>
<path d="M411.091 15.342L407.211 33.502H402.511L406.391 15.342H411.091ZM430.851 27.062L433.321 20.242L434.741 27.062H430.851ZM436.091 33.492H440.431L436.641 15.332H432.631C431.731 15.332 430.971 15.852 430.631 16.662L423.581 33.482H428.511L429.491 30.772H435.521C435.521 30.782 436.091 33.492 436.091 33.492ZM423.831 27.572C423.851 22.782 417.211 22.512 417.251 20.372C417.261 19.722 417.881 19.032 419.241 18.852C419.911 18.762 421.771 18.692 423.871 19.662L424.691 15.812C423.561 15.402 422.111 15.012 420.301 15.012C415.661 15.012 412.391 17.482 412.361 21.012C412.331 23.622 414.691 25.082 416.471 25.952C418.301 26.842 418.921 27.412 418.911 28.212C418.901 29.432 417.451 29.972 416.101 29.992C413.741 30.032 412.371 29.352 411.281 28.842L410.431 32.822C411.531 33.322 413.551 33.762 415.651 33.782C420.581 33.782 423.811 31.342 423.831 27.572ZM404.371 15.342L396.761 33.502H391.801L388.051 19.012C387.821 18.122 387.631 17.792 386.931 17.422C385.801 16.812 383.941 16.232 382.301 15.882L382.411 15.352H390.401C391.421 15.352 392.331 16.032 392.571 17.202L394.551 27.712L399.441 15.352H404.371V15.342Z" fill="#1A1F71"/>
<path d="M71.4149 497.227H1.29492V539.827H71.4149V497.227Z" fill="white" stroke="#CD0E41" stroke-width="0.9793" stroke-miterlimit="3.1398"/>
<path d="M7.90524 537.757C7.13524 537.567 6.19525 537.237 5.81525 537.037L5.11523 536.677L5.65524 534.687C6.34524 532.147 6.66525 532.007 7.59525 533.837C8.76525 536.137 13.3152 536.547 14.3952 534.457C15.1652 532.967 14.5553 531.197 13.0153 530.437C12.7053 530.287 11.3052 529.607 9.90524 528.947C7.16524 527.637 6.30524 526.837 5.65524 525.017C4.62524 522.097 5.81524 519.277 8.77524 517.637C9.92524 516.997 11.3052 516.457 13.4252 516.497C14.0152 516.557 14.7052 516.707 15.9852 517.447L34.0652 517.357L34.2253 520.867L28.5852 520.037L28.4153 537.637H25.8152H23.2152L22.7852 519.997L16.1852 520.507C15.2552 520.077 14.2053 519.007 13.0153 519.007C10.4653 519.007 9.89524 519.357 9.55524 521.207C9.31524 522.487 10.0952 523.227 13.4652 524.927C15.0452 525.727 16.3052 526.507 16.2752 526.677C16.2452 526.837 16.3552 526.917 16.5252 526.857C16.9352 526.697 18.2352 527.997 18.7452 529.067C19.3752 530.387 19.3052 532.767 18.5952 534.037C17.8252 535.427 15.7852 537.037 14.2152 537.517C12.3452 538.077 9.56524 538.177 7.90524 537.757ZM38.3752 517.467L41.9153 517.497L49.9352 536.137L50.5453 517.287L56.2953 517.367C61.6253 517.437 62.1152 517.487 63.0052 517.967C67.0352 520.127 66.6352 525.167 62.2552 527.167L60.9552 527.757L67.7152 537.637L61.4753 537.647L55.9352 529.027L55.8752 537.647H50.2352H44.5952L42.3253 531.607H35.2552L32.9652 537.537L31.2152 537.607L29.4652 537.677L38.3752 517.467ZM41.3652 529.207L39.2052 523.977L36.4753 529.287C36.6953 529.497 41.3652 529.437 41.3652 529.207ZM58.7052 526.207C59.7152 525.747 60.2452 524.577 60.2452 522.807C60.2452 521.927 60.1252 520.937 59.9652 520.607C59.6252 519.857 58.0053 519.197 56.7653 519.297L55.8652 519.377L55.8853 526.667C55.8853 526.867 57.9952 526.527 58.7052 526.207ZM52.7852 515.337L54.7752 508.577L49.0352 504.487L56.5552 504.307L58.5453 497.957L60.5453 504.307L68.0652 504.487L62.2752 508.707L64.3052 515.507C64.2752 515.537 63.0452 514.657 61.5852 513.547C60.1252 512.437 58.7452 511.527 58.5252 511.517L52.7852 515.337ZM6.60526 513.327C9.48526 510.667 15.8652 508.217 23.5852 506.797C29.7152 505.667 34.5552 505.107 41.2452 504.747C47.3352 504.417 47.8952 504.427 47.8952 504.867C47.8952 505.067 47.8152 505.227 47.7152 505.237C46.4552 505.247 38.9952 505.777 37.2452 505.967C28.1352 506.987 22.0752 509.417 19.3352 513.147L18.2452 514.627L5.17523 514.637L6.60526 513.327Z" fill="#CD0E41"/>
<path d="M69.1919 534.743C69.4319 534.743 69.6619 534.803 69.8919 534.923C70.1219 535.043 70.3019 535.223 70.4219 535.453C70.5519 535.683 70.6119 535.923 70.6119 536.173C70.6119 536.423 70.5519 536.653 70.4219 536.883C70.2919 537.113 70.1219 537.283 69.8919 537.413C69.6619 537.543 69.4319 537.603 69.1819 537.603C68.9319 537.603 68.7019 537.543 68.4719 537.413C68.2419 537.283 68.0719 537.113 67.9419 536.883C67.8119 536.653 67.752 536.423 67.752 536.173C67.752 535.923 67.8119 535.683 67.9419 535.453C68.0719 535.223 68.2519 535.053 68.4719 534.923C68.7219 534.813 68.9519 534.743 69.1919 534.743ZM69.1919 534.983C68.9919 534.983 68.7919 535.033 68.6019 535.133C68.4119 535.233 68.2619 535.383 68.1519 535.573C68.0419 535.763 67.9919 535.963 67.9919 536.173C67.9919 536.383 68.0419 536.573 68.1519 536.763C68.2619 536.953 68.4019 537.103 68.5919 537.203C68.7819 537.303 68.9819 537.363 69.1819 537.363C69.3919 537.363 69.5819 537.313 69.7719 537.203C69.9619 537.093 70.1119 536.953 70.2119 536.763C70.3119 536.573 70.3719 536.373 70.3719 536.173C70.3719 535.963 70.3219 535.763 70.2119 535.573C70.1019 535.383 69.9619 535.233 69.7619 535.133C69.5819 535.033 69.3919 534.983 69.1919 534.983ZM68.562 536.963V535.423H69.0919C69.2719 535.423 69.4019 535.433 69.4819 535.463C69.5619 535.493 69.6219 535.543 69.6719 535.613C69.7219 535.683 69.7419 535.763 69.7419 535.833C69.7419 535.943 69.7019 536.043 69.6219 536.123C69.5419 536.203 69.4319 536.253 69.3019 536.263C69.3519 536.283 69.4019 536.313 69.4319 536.343C69.4919 536.403 69.5719 536.503 69.6619 536.643L69.8519 536.943H69.5519L69.4119 536.703C69.3019 536.513 69.2219 536.393 69.1519 536.343C69.1019 536.303 69.0419 536.293 68.9519 536.293H68.8019V536.943L68.562 536.963ZM68.812 536.103H69.1119C69.2519 536.103 69.3519 536.083 69.4019 536.043C69.4519 536.003 69.4819 535.943 69.4819 535.873C69.4819 535.823 69.4719 535.783 69.4419 535.753C69.4119 535.713 69.3819 535.693 69.3419 535.673C69.3019 535.653 69.2119 535.643 69.0919 535.643H68.812V536.103Z" fill="#CD0E41"/>
<path d="M78.0605 311.26H8.73047V356.7H78.0605V311.26Z" fill="#00249F"/>
<path d="M76.4605 312.53H10.3105V355.44H76.4605V312.53Z" fill="#00249F" stroke="white" stroke-width="0.9443" stroke-miterlimit="10"/>
<path d="M55.9297 324.59C55.2097 322.53 53.1498 321.25 50.9998 321.23H48.9597C48.7497 320.62 48.5398 320.03 48.3198 319.42C46.9498 315.65 41.6698 315 39.1898 318.04C38.4598 318.93 38.1498 320.15 37.7798 321.23C37.0998 321.23 36.4197 321.23 35.7397 321.23C33.5897 321.25 31.5298 322.54 30.8198 324.59C30.1098 326.62 30.9298 328.8 32.6698 330C33.2198 330.37 33.7698 330.74 34.3198 331.11C34.1098 331.71 33.8998 332.31 33.6898 332.9C32.9998 334.94 33.8597 337.11 35.6097 338.3C37.4197 339.53 39.8898 339.54 41.7198 338.33C42.2698 337.96 42.8198 337.59 43.3698 337.22C43.9098 337.59 44.4597 337.95 45.0197 338.33C46.8497 339.54 49.3198 339.53 51.1298 338.3C52.8898 337.11 53.7397 334.95 53.0497 332.9L52.4198 331.11C52.9698 330.74 53.5198 330.37 54.0698 329.99C55.8198 328.81 56.6497 326.63 55.9297 324.59Z" fill="white"/>
<path d="M51.4908 328.42C52.1608 327.97 52.8908 327.58 53.1708 326.77C53.6908 325.3 52.4408 323.94 50.9808 323.93C47.5908 323.93 44.2008 323.92 40.8008 323.92C41.0308 323.29 41.2508 322.65 41.4708 322.02H51.0008C52.7908 322.04 54.5208 323.1 55.1208 324.83C55.7108 326.53 55.0208 328.35 53.5608 329.36C53.0808 329.68 52.6208 330 52.1408 330.31C51.9408 329.7 51.7108 329.06 51.4908 328.42Z" fill="#FDA702"/>
<path d="M45.8611 335.56C46.3511 335.9 46.8511 336.29 47.4411 336.46C49.0811 336.92 50.8811 335.47 50.3011 333.73L47.1511 324.74L49.3111 324.73C50.3011 327.54 51.2711 330.35 52.2611 333.15C52.8311 334.85 52.1211 336.68 50.6511 337.67C49.1311 338.7 47.0611 338.7 45.5311 337.69C45.0611 337.37 44.5911 337.05 44.1211 336.73C44.6911 336.35 45.2711 335.96 45.8611 335.56Z" fill="#FDA702"/>
<path d="M36.8112 332.79C36.5512 333.53 36.2212 334.24 36.4912 335.04C36.9812 336.49 38.8212 336.96 40.0612 336.15L48.2712 330.59L48.9512 332.49C46.3812 334.23 43.8112 335.96 41.2512 337.7C40.1012 338.47 38.6612 338.63 37.3812 338.26C36.1112 337.89 35.0112 336.99 34.5412 335.64C34.0512 334.21 34.6012 332.96 35.0712 331.63C35.6512 332.01 36.2312 332.39 36.8112 332.79Z" fill="#FDA702"/>
<path d="M36.8506 323.93C36.0206 323.92 35.1906 323.85 34.4506 324.33C33.1806 325.18 33.1706 326.96 34.4306 327.83L42.6606 333.39C42.0806 333.79 41.5006 334.18 40.9206 334.58C38.3506 332.84 35.7806 331.11 33.2106 329.38C30.8406 327.76 30.8706 324.4 33.2506 322.81C34.5606 321.93 36.0306 322.04 37.5206 322.04C37.2906 322.66 37.0706 323.3 36.8506 323.93Z" fill="#FDA702"/>
<path d="M45.921 321.23C45.811 320.92 45.701 320.61 45.601 320.29C44.881 318.34 41.891 318.33 41.181 320.29C40.131 323.29 39.101 326.29 38.051 329.29C37.461 328.9 36.881 328.51 36.291 328.11C37.281 325.31 38.251 322.5 39.231 319.69C40.381 316.52 44.811 315.97 46.881 318.53C47.491 319.27 47.761 320.32 48.081 321.24L45.921 321.23Z" fill="#FDA702"/>
<path d="M51.8414 327.2C51.6314 327.35 51.4214 327.49 51.2014 327.63L50.1914 324.72C50.7514 324.72 51.3414 324.66 51.8214 324.99C52.6214 325.53 52.6314 326.65 51.8414 327.2Z" fill="#00249F" stroke="white" stroke-width="0.9443" stroke-miterlimit="10"/>
<path d="M48.9301 335.49C48.4201 335.83 47.7301 335.84 47.2201 335.5C47.0101 335.36 46.8001 335.22 46.5801 335.07C47.4701 334.47 48.3501 333.87 49.2401 333.28C49.3201 333.51 49.4101 333.74 49.4901 333.97C49.6701 334.55 49.4301 335.16 48.9301 335.49Z" fill="#00249F" stroke="white" stroke-width="0.9443" stroke-miterlimit="10"/>
<path d="M37.8396 335.49C37.3496 335.16 37.0996 334.55 37.2996 333.98L37.5397 333.29L40.1897 335.08C39.9797 335.23 39.7696 335.37 39.5496 335.51C39.0396 335.83 38.3496 335.83 37.8396 335.49Z" fill="#00249F" stroke="white" stroke-width="0.9443" stroke-miterlimit="10"/>
<path d="M34.4097 325.67C34.6097 325.1 35.1897 324.72 35.7897 324.72H36.5697C36.2297 325.69 35.8897 326.66 35.5497 327.63C35.3397 327.48 35.1297 327.34 34.9097 327.2C34.4297 326.86 34.2097 326.25 34.4097 325.67Z" fill="#00249F" stroke="white" stroke-width="0.9443" stroke-miterlimit="10"/>
<path d="M40.5298 324.73H46.2397L48.0098 329.79L43.3898 332.92C41.8498 331.89 40.3098 330.84 38.7598 329.8C39.3498 328.11 39.9398 326.42 40.5298 324.73Z" fill="#00249F" stroke="white" stroke-width="0.9443" stroke-miterlimit="10"/>
<path d="M43.39 319.6C43.99 319.6 44.57 319.96 44.78 320.53C44.86 320.76 44.94 320.99 45.02 321.22H41.75C41.83 320.99 41.91 320.76 41.99 320.53C42.2 319.96 42.79 319.6 43.39 319.6Z" fill="#00249F" stroke="white" stroke-width="0.9443" stroke-miterlimit="10"/>
<path d="M15.0813 342.53H17.3214L15.5913 350.84H13.3613L15.0813 342.53Z" fill="white"/>
<path d="M18.7309 342.53H21.5009L23.2109 348.29H23.2309L24.4009 342.53H26.5009L24.7309 350.84H21.9709L20.2309 345.09H20.2009L19.0509 350.84H16.9609L18.7309 342.53Z" fill="white"/>
<path d="M28.8398 344.17H26.7598L27.1198 342.53H33.5098L33.1598 344.17H31.0797L29.6698 350.83H27.4198L28.8398 344.17Z" fill="white"/>
<path d="M33.9499 342.53H39.7999L39.4799 344.1H35.8199L35.4399 345.82H38.8999L38.5599 347.38H35.1099L34.6999 349.27H38.4999L38.1799 350.84H32.1699L33.9499 342.53Z" fill="white"/>
<path d="M40.5205 342.53H43.1805C44.7605 342.54 46.6705 342.59 46.6705 344.65C46.6705 346.11 45.5305 346.63 44.2605 346.78V346.8C44.9105 346.86 45.1205 347.74 45.2505 348.28L45.8506 350.84H43.6405L43.2105 348.72C42.9905 347.64 42.9305 347.55 41.9305 347.55H41.7005L41.0405 350.84H38.8105L40.5205 342.53Z" fill="white"/>
<path d="M48.2104 342.53H50.4505L49.0705 349.19H52.5504L52.2005 350.84H46.4805L48.2104 342.53Z" fill="white"/>
<path d="M54.6812 342.53H56.9112L55.1812 350.84H52.9512L54.6812 342.53Z" fill="white"/>
<path d="M58.1196 342.53H60.8896L62.5896 348.29H62.6196L63.7796 342.53H65.8796L64.1196 350.84H61.3596L59.6196 345.09H59.5896L58.4396 350.84H56.3496L58.1196 342.53Z" fill="white"/>
<path d="M67.1406 342.53H69.3806L68.6606 345.92H68.6806L71.6906 342.53H74.5506L70.6006 346.57L73.0506 350.84H70.5006L68.4506 347.06H68.4206L67.6206 350.84H65.3906L67.1406 342.53Z" fill="white"/>
<path d="M41.9902 345.98H42.7402C43.7002 345.98 44.4503 345.75 44.4503 344.95C44.4503 344.36 44.0903 344.1 43.4203 344.09H42.3602L41.9902 345.98Z" fill="#00249F"/>
<path d="M438.33 763.46C398.11 763.46 365.9 756.89 347.18 744.79L347.31 744.58C387.88 770.79 490.21 769.09 575.43 740.79L575.51 741.03C534.2 754.75 487.71 762.69 444.59 763.4C442.48 763.44 440.39 763.46 438.33 763.46Z" stroke="#9DCCD1" stroke-width="0.4196" stroke-miterlimit="10"/>
<path d="M373.67 702.09C342 702.09 313.09 699.7 287.6 694.96C258.26 689.5 234.76 681.17 217.74 670.17L217.87 669.96C249.85 690.62 304.9 701.84 373.62 701.84C377.16 701.84 380.72 701.81 384.33 701.75C458.06 700.53 537.57 686.94 608.21 663.49L608.29 663.73C537.63 687.19 458.09 700.78 384.33 702C380.75 702.06 377.19 702.09 373.67 702.09Z" stroke="#9DCCD1" stroke-width="0.4196" stroke-miterlimit="10"/>
<path d="M428.341 764.15C413.451 764.15 398.811 761.23 384.651 755.41C370.501 749.59 356.941 740.9 344.351 729.57C331.701 718.19 320.031 704.14 309.671 687.82C299.121 671.21 289.901 652.21 282.271 631.35C274.411 609.88 268.201 586.32 263.811 561.34L264.061 561.3C281.191 658.69 326.321 731.17 384.761 755.18C424.851 771.65 467.891 764.86 509.231 735.54L509.371 735.74C488.481 750.56 466.981 759.69 445.471 762.87C439.731 763.73 434.021 764.15 428.341 764.15Z" stroke="#6CC9D8" stroke-width="1.6846" stroke-miterlimit="10"/>
<path d="M493.639 763.08C493.599 763.08 493.549 763.08 493.509 763.08C474.299 762.71 447.819 682.47 426.029 558.65L426.279 558.61C437.129 620.27 449.279 672.07 461.409 708.42C473.229 743.84 484.329 762.65 493.509 762.83C493.549 762.83 493.599 762.83 493.639 762.83C500.049 762.83 505.269 753.67 509.169 735.61L509.409 735.66C505.489 753.86 500.179 763.08 493.639 763.08Z" stroke="#6CC9D8" stroke-width="1.6846" stroke-miterlimit="10"/>
<path d="M549.411 749.9C547.771 749.9 546.121 749.82 544.431 749.64C533.581 748.54 521.721 743.87 509.181 735.77L508.961 735.63L509.211 735.55C543.361 724.21 575.231 707.62 604.081 686.95C605.551 680.54 606.771 673.68 607.741 666.39C612.931 627.16 610.431 576.62 600.501 520.22L600.481 520.11L600.581 520.08C672.46 496.21 728.55 465.93 761.41 434.59C767.26 398.12 767.39 360.89 760.95 324.29L760.9 324.01L761.14 324.17C773.4 332.09 782.39 341.03 787.86 350.73C793.17 360.15 795.18 370.32 793.83 380.96C791.63 398.23 780.66 416.47 761.74 434.59C760.77 440.67 759.63 446.76 758.34 452.85C749.4 494.87 733.13 535.33 710 573.13C686.86 610.93 658.02 644.14 624.281 671.86C617.741 677.23 611.081 682.35 604.281 687.21C598.051 714.26 587.381 733.31 572.971 742.87C565.911 747.54 558.001 749.9 549.411 749.9ZM509.531 735.71C534.031 751.47 555.921 753.87 572.831 742.65C587.141 733.16 597.741 714.25 603.971 687.42C574.631 708.38 542.951 724.58 509.531 735.71ZM600.771 520.28C610.681 576.66 613.181 627.19 607.991 666.42C607.041 673.61 605.841 680.39 604.391 686.73C687.35 627.17 745.4 533.89 761.36 434.93C754.78 441.2 747.24 447.45 738.79 453.65C704.84 478.52 657.12 501.56 600.771 520.28ZM761.25 324.52C767.51 360.29 767.69 397.1 761.79 434.22C780.31 416.45 791.36 398.36 793.58 380.91C796.3 359.52 785.12 340.03 761.25 324.52Z" stroke="#9DCCD1" stroke-width="0.4196" stroke-miterlimit="10"/>
<path d="M575.51 741.03L575.43 740.79C632.39 721.88 669.7 694.98 672.8 670.6C674.17 659.79 668.5 649.94 656.39 642.12L656.52 641.91C668.72 649.79 674.43 659.72 673.04 670.63C669.94 695.12 632.56 722.09 575.51 741.03Z" stroke="#9DCCD1" stroke-width="0.4196" stroke-miterlimit="10"/>
<path d="M608.301 663.73L608.221 663.49C705.69 631.13 769.55 585.09 774.86 543.34C777.22 524.82 767.49 507.94 746.74 494.53L746.87 494.32C757.46 501.16 765.22 508.88 769.95 517.26C774.54 525.4 776.27 534.19 775.1 543.37C772.53 563.54 756.1 585.25 727.57 606.16C698.24 627.66 656.99 647.56 608.301 663.73Z" stroke="#9DCCD1" stroke-width="0.4196" stroke-miterlimit="10"/>
<path d="M536.529 737.25C527.599 737.25 518.519 736.76 509.279 735.77L509.309 735.52C518.429 736.5 527.429 736.98 536.249 736.98C594.429 736.98 645.68 715.98 682.59 676.49C731.5 624.16 750.69 543.79 735.25 456L735.5 455.96C743.38 500.75 742.51 543.05 732.92 581.69C728.32 600.23 721.7 617.73 713.24 633.71C704.85 649.57 694.6 664.02 682.78 676.66C661.96 698.94 636.68 715.39 607.649 725.57C585.469 733.34 561.639 737.25 536.529 737.25Z" stroke="#6CC9D8" stroke-width="1.6846" stroke-miterlimit="10"/>
<path d="M509.309 735.76L509.279 735.51C603.299 724.32 687.44 677.23 740.12 606.34C787.83 542.13 806.54 463.78 792.8 385.7L793.05 385.66C806.8 463.81 788.07 542.24 740.32 606.49C727.57 623.65 712.83 639.64 696.52 654.01C680.07 668.5 661.9 681.45 642.53 692.49C602.169 715.48 557.349 730.04 509.309 735.76Z" stroke="#9DCCD1" stroke-width="0.4196" stroke-miterlimit="10"/>
<path d="M509.269 735.78L509.219 735.75C489.509 723.02 468.959 702.48 448.129 674.7C428.009 647.87 408.479 615.46 390.069 578.36C371.669 541.26 355.319 501.34 341.479 459.71C327.149 416.61 316.159 373.55 308.799 331.74L308.779 331.63L308.879 331.6C350.239 317.87 394.219 307.04 439.599 299.41C483.429 292.04 526.709 287.96 568.249 287.27C609.779 286.59 647.48 289.33 680.29 295.43C714.26 301.75 741.48 311.4 761.19 324.13L761.24 324.16L761.25 324.21C768.61 366.04 767.65 409.3 758.39 452.8C749.45 494.82 733.18 535.28 710.05 573.08C686.91 610.88 658.07 644.09 624.329 671.81C589.389 700.51 550.709 722.02 509.339 735.76L509.269 735.78ZM309.079 331.79C323.639 414.47 352.479 501.99 390.299 578.24C428.119 654.48 470.379 710.33 509.309 735.5C678.11 679.42 791.01 494.98 761.01 324.3C722.06 299.16 653.59 286.09 568.259 287.51C482.909 288.92 390.859 304.65 309.079 331.79Z" stroke="#9DCCD1" stroke-width="0.4196" stroke-miterlimit="10"/>
<path d="M428.269 645.91L428.189 645.67C469.499 631.95 515.989 624.01 559.109 623.3C561.219 623.26 563.309 623.25 565.369 623.25C605.589 623.25 637.8 629.82 656.52 641.92L656.39 642.13C615.819 615.92 513.489 617.62 428.269 645.91Z" stroke="#9DCCD1" stroke-width="0.4196" stroke-miterlimit="10"/>
<path d="M356.391 501L356.311 500.76C426.971 477.3 506.511 463.71 580.271 462.49C616.131 461.89 648.69 464.27 677.02 469.53C706.36 474.98 729.86 483.32 746.88 494.32L746.75 494.53C714.77 473.87 659.73 462.65 591.001 462.65C587.461 462.65 583.901 462.68 580.291 462.74C506.541 463.96 427.031 477.55 356.391 501Z" stroke="#9DCCD1" stroke-width="0.4196" stroke-miterlimit="10"/>
<path d="M645.56 290.58L645.81 290.54C653.17 332.36 655.261 376.51 652.021 421.76C648.891 465.47 640.96 508.36 628.43 549.24C615.9 590.13 599.41 626.95 579.42 658.67C558.72 691.52 535.15 717.45 509.37 735.74L509.23 735.54C560.19 699.39 602.44 633.21 628.19 549.17" stroke="#6CC9D8" stroke-width="1.6846" stroke-miterlimit="10"/>
<path d="M509.41 735.67L509.17 735.62C524.97 662.46 513.38 464.02 483.33 293.26L483.58 293.22C513.63 464 525.22 662.48 509.41 735.67Z" stroke="#9DCCD1" stroke-width="0.4196" stroke-miterlimit="10"/>
<path d="M347.18 744.79C334.98 736.91 329.27 726.98 330.66 716.07C333.77 691.59 371.15 664.61 428.2 645.67L428.28 645.91C371.32 664.82 334.01 691.72 330.91 716.1C329.54 726.91 335.21 736.76 347.32 744.58L347.18 744.79Z" stroke="#9DCCD1" stroke-width="0.4196" stroke-miterlimit="10"/>
<path d="M217.741 670.17C207.151 663.33 199.391 655.61 194.661 647.23C190.071 639.09 188.341 630.3 189.511 621.12C192.081 600.95 208.511 579.24 237.041 558.33C266.371 536.83 307.621 516.93 356.311 500.76L356.391 501C258.921 533.36 195.061 579.4 189.751 621.15C187.391 639.68 197.121 656.55 217.871 669.96L217.741 670.17Z" stroke="#9DCCD1" stroke-width="0.4196" stroke-miterlimit="10"/>
<path d="M509.279 735.76C471.389 731.7 433.189 719.58 395.749 699.72C359.589 680.54 325.639 654.99 294.859 623.78C264.079 592.57 238.019 557.27 217.389 518.87C196.039 479.11 181.479 437.74 174.119 395.92L174.369 395.88C204.399 566.6 354.659 718.96 509.309 735.52L509.279 735.76Z" stroke="#6CC9D8" stroke-width="1.6846" stroke-miterlimit="10"/>
<path d="M464.681 738.42C433.961 738.42 403.391 734.64 373.361 727.09C330.341 716.28 290.231 698.25 254.171 673.5C218.101 648.75 187.881 618.52 164.351 583.65C139.991 547.55 123.911 508.04 116.551 466.22L116.801 466.18C146.841 636.89 322.901 757.72 509.271 735.52L509.301 735.77C494.431 737.54 479.541 738.42 464.681 738.42Z" stroke="#6CC9D8" stroke-width="1.0582" stroke-miterlimit="10"/>
<path d="M328.99 564.71C292.31 564.71 258.84 561.94 229.31 556.45C195.34 550.13 168.12 540.48 148.41 527.74L148.36 527.71L148.35 527.66C140.99 485.83 141.95 442.57 151.21 399.06C160.15 357.04 176.42 316.57 199.55 278.78C222.68 240.98 251.52 207.76 285.27 180.04C320.21 151.34 358.89 129.83 400.26 116.09L400.32 116.07L400.37 116.1C420.08 128.83 440.63 149.37 461.46 177.15C481.58 203.98 501.11 236.39 519.52 273.5C537.92 310.6 554.27 350.53 568.11 392.16C582.44 435.26 593.43 478.32 600.79 520.14L600.81 520.25L600.71 520.28C559.35 534.01 515.37 544.84 469.99 552.47C426.16 559.84 382.88 563.92 341.34 564.61C337.19 564.68 333.06 564.71 328.99 564.71ZM600.53 520.08C585.97 437.39 557.13 349.87 519.31 273.62C481.49 197.37 439.23 141.53 400.3 116.35C231.5 172.43 118.6 356.88 148.6 527.56C187.55 552.7 256.01 565.78 341.35 564.35C426.7 562.95 518.75 547.22 600.53 520.08Z" stroke="#9DCCD1" stroke-width="0.4196" stroke-miterlimit="10"/>
<path d="M318.66 389.46C286.99 389.46 258.081 387.07 232.591 382.33C203.251 376.88 179.75 368.54 162.73 357.54L162.86 357.33C196.48 379.05 255.6 390.34 329.32 389.12C403.05 387.9 482.561 374.31 553.201 350.86L553.281 351.1C482.621 374.56 403.08 388.15 329.32 389.37C325.75 389.43 322.18 389.46 318.66 389.46Z" stroke="#6CC9D8" stroke-width="1.6846" stroke-miterlimit="10"/>
<path d="M344.23 228.6C304.01 228.6 271.8 222.03 253.08 209.93L253.21 209.72C293.78 235.93 396.11 234.23 481.33 205.94L481.41 206.18C440.1 219.9 393.61 227.84 350.49 228.55C348.38 228.59 346.29 228.6 344.23 228.6Z" stroke="#9DCCD1" stroke-width="0.4196" stroke-miterlimit="10"/>
<path d="M263.8 561.34C256.44 519.52 254.35 475.37 257.59 430.11C260.72 386.4 268.65 343.51 281.18 302.62C293.71 261.73 310.2 224.91 330.19 193.18C350.89 160.33 374.46 134.39 400.24 116.11L400.38 116.31C349.42 152.46 307.17 218.65 281.42 302.69C255.67 386.74 249.5 478.58 264.05 561.29L263.8 561.34Z" stroke="#6CC9D8" stroke-width="1.6846" stroke-miterlimit="10"/>
<path d="M426.03 558.65C395.98 387.86 384.39 189.37 400.19 116.18L400.43 116.23C384.63 189.39 396.22 387.83 426.27 558.6L426.03 558.65Z" stroke="#6CC9D8" stroke-width="1.6846" stroke-miterlimit="10"/>
<path d="M553.291 351.1L553.211 350.86C650.68 318.5 714.54 272.46 719.85 230.7C722.21 212.18 712.48 195.3 691.73 181.89L691.86 181.68C702.45 188.52 710.21 196.24 714.94 204.62C719.53 212.76 721.26 221.55 720.09 230.73C717.52 250.9 701.09 272.61 672.56 293.52C643.23 315.02 601.991 334.93 553.291 351.1Z" stroke="#6CC9D8" stroke-width="1.6846" stroke-miterlimit="10"/>
<path d="M481.41 206.18L481.33 205.94C538.29 187.03 575.6 160.13 578.7 135.75C580.08 124.94 574.4 115.09 562.29 107.27L562.42 107.06C574.62 114.94 580.33 124.87 578.94 135.78C575.84 160.26 538.46 187.24 481.41 206.18Z" stroke="#9DCCD1" stroke-width="0.4196" stroke-miterlimit="10"/>
<path d="M400.301 116.34L400.331 116.09C438.221 120.15 476.421 132.27 513.861 152.13C550.031 171.31 583.971 196.86 614.751 228.08C645.53 259.29 671.59 294.59 692.22 332.99C713.57 372.75 728.13 414.12 735.49 455.94L735.24 455.98" stroke="#6CC9D8" stroke-width="1.6846" stroke-miterlimit="10"/>
<path d="M792.8 385.7C762.76 214.98 586.679 94.14 400.319 116.34L400.289 116.09C445.949 110.65 491.689 113.57 536.229 124.76C579.249 135.57 619.359 153.6 655.42 178.36C691.49 203.12 721.71 233.35 745.24 268.21C769.6 304.31 785.68 343.82 793.04 385.65L792.8 385.7Z" stroke="#9DCCD1" stroke-width="0.4196" stroke-miterlimit="10"/>
<path d="M308.841 331.87L308.811 331.73C298.881 275.3 296.381 224.73 301.571 185.48C306.621 147.32 318.731 120.89 336.591 109.04C344.991 103.46 354.601 101.18 365.141 102.25C375.971 103.35 387.811 108 400.331 116.08C442.381 102.12 484.621 97.06 525.851 101.03C545.671 102.94 565.141 106.97 583.721 113.02C602.131 119.01 619.801 127.03 636.26 136.86C668.55 156.13 695.73 181.83 717.06 213.24C739.14 245.76 754.01 283.1 761.24 324.22L761.29 324.5L761.05 324.34C724.01 300.41 660.26 287.41 580.661 287.41C576.561 287.41 572.441 287.44 568.261 287.51C482.861 288.92 390.781 304.66 308.971 331.82L308.841 331.87ZM360.091 102.29C351.561 102.29 343.721 104.6 336.721 109.24C318.921 121.05 306.851 147.42 301.811 185.5C296.631 224.69 299.121 275.19 309.021 331.54C350.341 317.83 394.271 307.02 439.601 299.4C483.431 292.03 526.711 287.95 568.251 287.26C609.781 286.58 647.48 289.32 680.29 295.42C714.12 301.71 741.26 311.32 760.95 323.97C746.62 242.92 702.3 176.56 636.13 137.07C567.381 96.04 483.641 88.68 400.351 116.33L400.291 116.35L400.241 116.32C385.791 106.98 372.251 102.29 360.091 102.29Z" stroke="#9DCCD1" stroke-width="0.4196" stroke-miterlimit="10"/>
<path d="M301.391 188.37L301.311 188.13C371.971 164.67 451.511 151.08 525.271 149.86C561.141 149.26 593.691 151.64 622.021 156.9C651.36 162.35 674.86 170.69 691.88 181.69L691.75 181.9C659.77 161.24 604.731 150.02 536.001 150.02C532.461 150.02 528.901 150.05 525.291 150.11C451.541 151.33 372.031 164.91 301.391 188.37Z" stroke="#9DCCD1" stroke-width="0.4196" stroke-miterlimit="10"/>
<path d="M334.17 111.06L334.09 110.82C375.4 97.1 421.89 89.16 465.01 88.45C508.13 87.75 542.74 94.35 562.42 107.07L562.29 107.28C521.72 81.06 419.39 82.76 334.17 111.06Z" stroke="#9DCCD1" stroke-width="0.4196" stroke-miterlimit="10"/>
<path d="M524.85 96.68C484.76 80.21 441.72 87 400.39 116.32L400.25 116.12C421.14 101.3 442.64 92.17 464.14 88.99C484.93 85.91 505.39 88.42 524.95 96.46C539.1 102.28 552.66 110.97 565.25 122.3C577.9 133.68 589.57 147.73 599.94 164.05C610.49 180.66 619.71 199.67 627.35 220.53C635.21 242 641.42 265.56 645.81 290.55L645.56 290.59" stroke="#6CC9D8" stroke-width="1.6846" stroke-miterlimit="10"/>
<path d="M483.331 293.26C472.481 231.6 460.331 179.79 448.201 143.44C436.381 108.02 425.271 89.21 416.091 89.03C416.051 89.03 416.001 89.03 415.961 89.03C409.551 89.03 404.331 98.19 400.431 116.25L400.191 116.2C404.121 98.01 409.431 88.78 415.971 88.78C416.021 88.78 416.061 88.78 416.101 88.78C435.311 89.15 461.801 169.4 483.581 293.22L483.331 293.26Z" stroke="#9DCCD1" stroke-width="0.4196" stroke-miterlimit="10"/>
<path d="M148.65 527.9L148.41 527.74C136.15 519.82 127.16 510.88 121.69 501.18C116.38 491.76 114.37 481.59 115.72 470.95C117.92 453.68 128.89 435.44 147.81 417.32C148.78 411.24 149.92 405.15 151.21 399.05C160.15 357.03 176.42 316.56 199.55 278.77C222.68 240.97 251.52 207.75 285.27 180.03C291.81 174.66 298.48 169.54 305.27 164.68C311.5 137.63 322.17 118.58 336.58 109.02C344.98 103.44 354.59 101.16 365.13 102.23C375.98 103.33 387.84 108 400.37 116.1L400.59 116.24L400.34 116.32C366.19 127.66 334.33 144.25 305.47 164.92C304 171.33 302.78 178.2 301.81 185.49C296.62 224.72 299.12 275.27 309.05 331.67L309.07 331.78L308.97 331.81C237.09 355.68 180.99 385.97 148.14 417.31C142.29 453.78 142.16 491.01 148.6 527.61L148.65 527.9ZM147.76 417.68C129.24 435.45 118.19 453.54 115.97 470.99C113.25 492.38 124.43 511.87 148.3 527.38C142.05 491.61 141.87 454.8 147.76 417.68ZM305.17 165.15C222.21 224.71 164.16 318 148.19 416.97C154.77 410.7 162.31 404.45 170.76 398.25C204.71 373.37 252.44 350.33 308.79 331.61C298.88 275.23 296.38 224.69 301.57 185.46C302.53 178.28 303.73 171.5 305.17 165.15ZM360.09 102.29C351.56 102.29 343.72 104.6 336.72 109.24C322.41 118.73 311.81 137.64 305.58 164.47C334.93 143.5 366.6 127.3 400.02 116.18C385.66 106.94 372.19 102.29 360.09 102.29Z" stroke="#9DCCD1" stroke-width="0.4196" stroke-miterlimit="10"/>
<path d="M134.5 308.49C137.07 288.32 153.5 266.61 182.03 245.7C211.36 224.2 252.61 204.3 301.3 188.13" stroke="#9DCCD1" stroke-width="0.4196" stroke-miterlimit="10"/>
<path d="M133.769 307.77C131.409 326.29 142.119 343.92 162.869 357.33L162.739 357.54" stroke="#6CC9D8" stroke-width="1.6846" stroke-miterlimit="10"/>
<path d="M253.08 209.94C240.88 202.06 235.17 192.13 236.56 181.22C239.67 156.74 277.05 129.77 334.1 110.82L334.18 111.06C277.22 129.97 239.91 156.87 236.81 181.25C235.43 192.06 241.11 201.91 253.22 209.73L253.08 209.94Z" stroke="#9DCCD1" stroke-width="0.4196" stroke-miterlimit="10"/>
<path d="M174.12 395.92C166.24 351.13 167.11 308.82 176.7 270.18C181.3 251.64 187.92 234.14 196.38 218.15C204.77 202.29 215.02 187.84 226.84 175.19C247.66 152.91 272.94 136.46 301.97 126.28C332.02 115.74 365.11 112.31 400.33 116.08L400.3 116.33C331.07 108.92 269.53 129.88 227.03 175.36C178.12 227.69 158.92 308.07 174.37 395.87L174.12 395.92Z" stroke="#6CC9D8" stroke-width="1.6846" stroke-miterlimit="10"/>
<path d="M116.559 466.22C102.809 388.07 121.539 309.63 169.289 245.37C182.039 228.21 196.779 212.22 213.089 197.85C229.539 183.36 247.709 170.41 267.079 159.37C307.439 136.37 352.259 121.81 400.299 116.09L400.329 116.34C306.309 127.53 222.179 174.62 169.489 245.51C121.779 309.72 103.069 388.08 116.799 466.17L116.559 466.22Z" stroke="#6CC9D8" stroke-width="1.0582" stroke-miterlimit="10"/>
<path d="M457.661 765.43C450.691 765.43 441.641 765.25 434.771 764.98C430.631 764.81 425.241 764.34 420.921 763.96L420.171 763.89C414.931 763.43 408.041 762.54 403.341 761.87C398.891 761.23 392.651 760.17 387.461 759.18C358.491 753.66 334.641 744.74 325.741 741.16C313.391 736.19 297.231 728.17 285.851 722.31C282.291 720.48 278.291 718.04 274.301 715.57C271.371 713.84 268.481 712.05 265.631 710.21C257.101 704.53 245.431 696.75 237.491 689.96L234.871 687.72C228.101 681.93 219.681 674.73 213.541 668.92C210.101 665.66 201.481 657.32 195.701 650.34C194.671 649.1 193.591 647.79 192.461 646.44C186.941 639.81 180.691 632.29 176.051 626.08C171.611 620.13 165.821 611.58 161.311 604.3C156.711 596.88 150.601 585.94 146.111 577.07C142.431 569.79 138.071 559.61 135.121 552.58C129.881 540.12 124.581 524.06 121.931 512.6C121.571 511.06 121.191 509.42 120.791 507.72C119.081 500.44 117.131 492.2 116.031 485.57C114.451 476.1 112.811 462.93 111.841 452.02C110.241 434.03 111.381 410.45 112.201 397.99C113.061 384.91 116.171 367.98 117.951 359.05C121.571 340.88 129.311 318.09 132.471 309.14C136.511 297.71 142.661 283.79 147.791 274.51C154.811 261.79 164.431 244.37 173.261 232.43C174.071 231.34 174.921 230.17 175.811 228.96C179.681 223.68 184.061 217.69 187.891 213.22C191.441 209.08 203.831 194.75 214.431 184.33C219.131 179.71 225.571 173.83 230.451 169.71C237.951 163.38 245.661 157.27 251.081 153.37C256.891 149.19 263.551 144.47 268.891 141.16C275.981 136.77 287.511 129.94 296.691 125.13C307.731 119.34 319.171 114.53 322.921 112.95C326.621 111.39 331.581 109.48 334.991 108.21C337.521 107.27 340.741 106.16 343.571 105.18C344.641 104.81 345.671 104.46 346.611 104.13C346.681 104.1 355.011 101.21 368.351 97.6799C376.611 95.4999 383.271 94.13 388.631 93.02C392.161 92.29 396.751 91.51 398.561 91.2C400.571 90.86 403.001 90.5 405.351 90.15C406.451 89.99 407.521 89.8299 408.481 89.6799C410.601 89.3599 413.161 89.06 415.641 88.78C416.681 88.66 417.691 88.5399 418.611 88.4299C418.691 88.4199 426.821 87.4299 439.651 86.7899C442.891 86.6299 447.441 86.4799 450.981 86.4299C454.261 86.3799 459.071 86.36 462.751 86.45C471.861 86.66 478.181 86.95 489.431 87.97C493.321 88.32 500.691 89.05 506.261 89.99C520.301 92.36 530.811 94.39 538.401 96.22C545.201 97.86 555.141 100.7 564.981 103.84C570.301 105.53 577.711 108.22 583.861 110.7C593.321 114.5 611.091 122 623.751 129.56C633.55 135.4 647.91 144.32 658.81 151.81C663.35 154.93 668.76 159.3 673.52 163.16C675.28 164.59 676.95 165.93 678.51 167.17C686.63 173.6 696.33 182.59 702.65 189.52C703.86 190.85 705.15 192.26 706.49 193.72C712.21 199.96 718.69 207.02 723.53 212.89C727.87 218.14 734.59 226.77 739.23 233.8C742.39 238.59 750.33 250.74 755.73 260.21C758.44 264.95 761.35 270.86 764.17 276.57C765.47 279.21 766.7 281.7 767.85 283.96C772.13 292.37 776.88 304.1 779.67 313.16C785.37 331.69 790.99 350.95 793.55 366.31C795.2 376.23 796.89 389.71 797.74 399.86C798.36 407.27 798.72 417.94 798.65 427.04C798.57 438.05 797.82 454.28 795.99 466.81C792.73 489.05 789.13 506.33 785.3 518.18C780.8 532.08 774.02 552.19 767.16 566.37C762.63 575.74 755.63 588.84 749.75 598.97C745.35 606.54 738.9 615.81 736.33 619.44C733.12 623.99 726.94 632.52 721.7 638.65C710.92 651.24 701.99 660.96 695.16 667.54C687.4 675.01 679.35 682.2 673.63 686.78C665.31 693.43 652.95 702.79 643.19 709.11C629.2 718.16 620.541 722.73 612.911 726.75C608.051 729.31 596.501 734.93 586.241 739.11C572.131 744.85 563.931 747.59 551.911 751.23C542.861 753.97 530.421 757.04 520.961 758.86C519.151 759.21 514.551 760.09 511.031 760.68C509.011 761.02 506.571 761.38 504.221 761.73C503.131 761.89 502.071 762.05 501.111 762.2C497.801 762.71 493.341 763.2 490.981 763.45C483.171 764.28 483.171 764.28 469.951 765.09C466.621 765.3 462.071 765.44 458.611 765.45C458.301 765.43 457.981 765.43 457.661 765.43ZM282.671 720.31C283.801 720.95 284.901 721.55 285.961 722.1C297.331 727.96 313.481 735.98 325.831 740.94C334.731 744.52 358.551 753.43 387.501 758.95C392.691 759.94 398.921 760.99 403.371 761.63C408.071 762.31 414.951 763.19 420.181 763.65L420.931 763.72C425.251 764.1 430.631 764.57 434.771 764.74C441.951 765.03 451.521 765.21 458.601 765.19C462.051 765.18 466.601 765.04 469.921 764.83C483.131 764.01 483.131 764.01 490.941 763.19C493.301 762.94 497.761 762.45 501.061 761.94C502.011 761.79 503.071 761.64 504.171 761.47C506.531 761.12 508.971 760.76 510.981 760.42C514.491 759.83 519.091 758.95 520.901 758.6C530.351 756.78 542.781 753.71 551.821 750.98C563.831 747.35 572.031 744.61 586.131 738.87C596.381 734.7 607.921 729.08 612.781 726.52C620.411 722.5 629.07 717.94 643.04 708.89C652.79 702.58 665.15 693.22 673.46 686.58C679.18 682 687.22 674.82 694.98 667.35C701.81 660.78 710.73 651.07 721.51 638.48C726.74 632.36 732.92 623.83 736.13 619.29C738.7 615.66 745.15 606.4 749.54 598.84C755.42 588.71 762.42 575.62 766.95 566.25C773.8 552.08 780.57 531.98 785.07 518.09C788.9 506.26 792.5 488.99 795.75 466.76C797.58 454.24 798.33 438.03 798.41 427.03C798.48 417.93 798.12 407.27 797.5 399.87C796.65 389.72 794.97 376.25 793.31 366.34C790.75 351 785.13 331.74 779.43 313.22C776.65 304.17 771.9 292.45 767.63 284.06C766.48 281.8 765.25 279.3 763.94 276.66C761.12 270.95 758.21 265.05 755.51 260.31C750.11 250.85 742.18 238.7 739.02 233.92C734.38 226.9 727.67 218.28 723.33 213.03C718.49 207.17 712.01 200.11 706.3 193.87C704.96 192.41 703.67 191 702.46 189.67C696.15 182.75 686.46 173.78 678.35 167.35C676.79 166.12 675.13 164.77 673.36 163.34C668.6 159.49 663.19 155.12 658.66 152C647.76 144.51 633.4 135.6 623.611 129.76C610.961 122.21 593.211 114.72 583.751 110.92C577.601 108.45 570.201 105.76 564.881 104.07C555.041 100.94 545.111 98.09 538.321 96.46C530.741 94.64 520.241 92.6 506.201 90.23C500.641 89.29 493.281 88.56 489.391 88.21C478.141 87.19 471.831 86.91 462.731 86.69C459.051 86.6 454.241 86.62 450.971 86.67C447.431 86.72 442.881 86.87 439.651 87.03C426.831 87.67 418.711 88.66 418.631 88.67C417.711 88.78 416.711 88.9 415.661 89.02C413.181 89.3 410.621 89.6 408.511 89.92C407.551 90.07 406.481 90.23 405.381 90.39C403.031 90.74 400.601 91.1 398.591 91.44C396.781 91.74 392.201 92.53 388.671 93.26C383.321 94.36 376.661 95.73 368.411 97.91C355.081 101.43 346.761 104.33 346.691 104.35C345.751 104.68 344.721 105.03 343.651 105.4C340.811 106.38 337.601 107.49 335.071 108.43C331.671 109.7 326.711 111.61 323.021 113.16C319.261 114.74 307.841 119.55 296.801 125.33C287.631 130.14 276.101 136.97 269.011 141.35C263.671 144.65 257.021 149.37 251.211 153.55C245.801 157.45 238.091 163.55 230.601 169.88C225.721 174 219.291 179.87 214.591 184.49C204.001 194.9 191.611 209.22 188.061 213.36C184.241 217.82 179.861 223.81 175.991 229.08C175.101 230.29 174.251 231.46 173.441 232.55C164.621 244.48 155.011 261.89 147.991 274.61C142.871 283.88 136.721 297.78 132.691 309.2C129.531 318.15 121.791 340.93 118.181 359.08C116.401 368 113.291 384.93 112.431 397.99C111.611 410.44 110.471 434.01 112.071 451.98C113.021 462.72 114.711 476.19 116.261 485.51C117.361 492.13 119.301 500.37 121.021 507.64C121.421 509.34 121.811 510.98 122.161 512.52C124.811 523.97 130.111 540.02 135.341 552.46C138.291 559.48 142.651 569.66 146.331 576.93C150.821 585.79 156.921 596.72 161.521 604.14C166.031 611.41 171.811 619.95 176.251 625.9C180.891 632.11 187.141 639.62 192.651 646.25C193.781 647.6 194.861 648.91 195.891 650.15C201.661 657.12 210.271 665.45 213.711 668.71C219.841 674.52 228.261 681.72 235.031 687.5L237.641 689.74C245.561 696.52 257.231 704.3 265.751 709.97C267.701 711.14 269.821 712.46 272.051 713.85C272.811 714.33 273.581 714.81 274.351 715.28C324.891 745.12 385.001 756.85 446.341 749.59C446.371 749.59 446.401 749.58 446.431 749.58C446.441 749.58 446.431 749.58 446.441 749.58C466.921 747.15 487.541 742.6 507.981 735.9C508.391 735.76 508.811 735.63 509.221 735.49L509.301 735.73C465.571 750.25 421.721 755.16 378.991 750.3C358.481 747.97 338.411 743.36 319.321 736.58C306.691 732.12 294.421 726.66 282.671 720.31Z" stroke="#6CC9D8" stroke-width="1.6846" stroke-miterlimit="10"/>
<path d="M148.311 527.38C157.851 569.81 183.601 652.13 257.711 704.6C268.351 712.13 279.101 718.42 289.711 723.67" stroke="#9DCCD1" stroke-width="0.4196" stroke-miterlimit="10"/>
<path d="M619.06 126.87C605.24 216.51 572.31 354.4 485.85 500.8C425.5 603 357.46 678.21 302.51 729.97" stroke="#9DCCD1" stroke-width="0.4196" stroke-miterlimit="10"/>
<path d="M163.16 247.66C190.92 293.82 260.93 395.83 393.69 462.64C572.62 552.69 742.03 516.66 788.82 505.05" stroke="#6CC9D8" stroke-width="1.6846" stroke-miterlimit="10"/>
<path d="M152.881 589.79C203.991 597.68 353.401 619.19 511.921 523.94C661.39 434.12 736.93 315.63 760.51 269.16" stroke="#9DCCD1" stroke-width="0.4196" stroke-miterlimit="10"/>
<path d="M176.939 626.83C180.139 574.45 194.169 471.88 264.759 372.86C404.709 176.53 644.44 165.99 675.98 165.12" stroke="#6CC9D8" stroke-width="1.6846" stroke-miterlimit="10"/>
<path d="M204.789 194.29C235.889 227.89 321.659 305.52 460.779 338.73C615.699 375.71 739.59 333.13 780.17 315.6" stroke="#6CC9D8" stroke-width="1.6846" stroke-miterlimit="10"/>
<path d="M395.75 699.72C440.46 684.32 495.62 657.68 546.34 610.24C716.85 450.75 683.26 199.98 678.37 167.34" stroke="#9DCCD1" stroke-width="0.4196" stroke-miterlimit="10"/>
<path d="M243.51 159.41C281.03 229.34 344.84 329.01 448.42 425.93C555.92 526.51 663.85 584.46 737.71 617.06" stroke="#9DCCD1" stroke-width="0.4196" stroke-miterlimit="10"/>
<path d="M560.08 186.7C563.012 186.7 565.39 184.323 565.39 181.39C565.39 178.457 563.012 176.08 560.08 176.08C557.147 176.08 554.77 178.457 554.77 181.39C554.77 184.323 557.147 186.7 560.08 186.7Z" fill="#023E7D"/>
<path d="M605.08 176.09C607.019 176.09 608.59 174.519 608.59 172.58C608.59 170.642 607.019 169.07 605.08 169.07C603.142 169.07 601.57 170.642 601.57 172.58C601.57 174.519 603.142 176.09 605.08 176.09Z" fill="#023E7D"/>
<path d="M311.77 231.11C314.78 231.11 317.22 228.67 317.22 225.66C317.22 222.65 314.78 220.21 311.77 220.21C308.76 220.21 306.32 222.65 306.32 225.66C306.32 228.67 308.76 231.11 311.77 231.11Z" fill="#0466C8"/>
<path d="M264.81 378.82C267.202 378.82 269.141 376.881 269.141 374.49C269.141 372.099 267.202 370.16 264.81 370.16C262.419 370.16 260.48 372.099 260.48 374.49C260.48 376.881 262.419 378.82 264.81 378.82Z" fill="#0466C8"/>
<path d="M258.729 420.26C260.546 420.26 262.019 418.787 262.019 416.97C262.019 415.153 260.546 413.68 258.729 413.68C256.912 413.68 255.439 415.153 255.439 416.97C255.439 418.787 256.912 420.26 258.729 420.26Z" fill="#0466C8"/>
<path d="M170.471 366.05C172.862 366.05 174.801 364.111 174.801 361.72C174.801 359.329 172.862 357.39 170.471 357.39C168.079 357.39 166.141 359.329 166.141 361.72C166.141 364.111 168.079 366.05 170.471 366.05Z" fill="#68A3DE"/>
<path d="M272.77 604.48C275.775 604.48 278.21 602.044 278.21 599.04C278.21 596.036 275.775 593.6 272.77 593.6C269.766 593.6 267.33 596.036 267.33 599.04C267.33 602.044 269.766 604.48 272.77 604.48Z" fill="#68A3DE"/>
<path d="M190.099 542.25C192.667 542.25 194.749 540.168 194.749 537.6C194.749 535.032 192.667 532.95 190.099 532.95C187.531 532.95 185.449 535.032 185.449 537.6C185.449 540.168 187.531 542.25 190.099 542.25Z" fill="#68A3DE"/>
<path d="M178.77 606.43C180.444 606.43 181.8 605.073 181.8 603.4C181.8 601.727 180.444 600.37 178.77 600.37C177.097 600.37 175.74 601.727 175.74 603.4C175.74 605.073 177.097 606.43 178.77 606.43Z" fill="#68A3DE"/>
<path d="M354.64 393.77C357.699 393.77 360.18 391.29 360.18 388.23C360.18 385.17 357.699 382.69 354.64 382.69C351.58 382.69 349.1 385.17 349.1 388.23C349.1 391.29 351.58 393.77 354.64 393.77Z" fill="#0466C8"/>
<path d="M316.01 418.25C317.711 418.25 319.09 416.871 319.09 415.17C319.09 413.469 317.711 412.09 316.01 412.09C314.309 412.09 312.93 413.469 312.93 415.17C312.93 416.871 314.309 418.25 316.01 418.25Z" fill="#68A3DE"/>
<path d="M348.131 439.32C349.235 439.32 350.131 438.425 350.131 437.32C350.131 436.215 349.235 435.32 348.131 435.32C347.026 435.32 346.131 436.215 346.131 437.32C346.131 438.425 347.026 439.32 348.131 439.32Z" fill="#68A3DE"/>
<path d="M364.96 448.59C365.716 448.59 366.33 447.977 366.33 447.22C366.33 446.463 365.716 445.85 364.96 445.85C364.203 445.85 363.59 446.463 363.59 447.22C363.59 447.977 364.203 448.59 364.96 448.59Z" fill="#68A3DE"/>
<path d="M334.089 112.71C335.774 112.71 337.139 111.344 337.139 109.66C337.139 107.976 335.774 106.61 334.089 106.61C332.405 106.61 331.039 107.976 331.039 109.66C331.039 111.344 332.405 112.71 334.089 112.71Z" fill="#9BC2E9"/>
<path d="M209.86 670.77C213.041 670.77 215.62 668.191 215.62 665.01C215.62 661.829 213.041 659.25 209.86 659.25C206.678 659.25 204.1 661.829 204.1 665.01C204.1 668.191 206.678 670.77 209.86 670.77Z" fill="#9BC2E9"/>
<path d="M455.93 555.87C455.51 559.05 452.6 561.28 449.42 560.87C446.24 560.45 444.01 557.54 444.42 554.36C444.84 551.18 447.75 548.95 450.93 549.36C454.11 549.78 456.35 552.69 455.93 555.87Z" fill="#0466C8"/>
<path d="M511.95 470.07C511.51 473.38 508.48 475.72 505.16 475.28C501.85 474.84 499.51 471.81 499.95 468.49C500.39 465.18 503.42 462.84 506.74 463.28C510.05 463.71 512.38 466.75 511.95 470.07Z" fill="#0466C8"/>
<path d="M508.93 742.12C505.68 741.79 503.32 738.89 503.65 735.64C503.98 732.39 506.88 730.03 510.13 730.36C513.38 730.69 515.74 733.59 515.41 736.84C515.08 740.09 512.18 742.46 508.93 742.12Z" fill="#0466C8"/>
<path d="M455.95 701.44C452.52 701.03 450.08 697.91 450.49 694.48C450.9 691.05 454.02 688.61 457.45 689.02C460.88 689.43 463.32 692.55 462.91 695.98C462.49 699.41 459.38 701.86 455.95 701.44Z" fill="#0466C8"/>
<path d="M357.221 683.28C354.261 682.92 352.151 680.23 352.511 677.27C352.871 674.31 355.561 672.2 358.521 672.56C361.481 672.92 363.591 675.61 363.231 678.57C362.871 681.53 360.181 683.64 357.221 683.28Z" fill="#0466C8"/>
<path d="M735.449 514.81C735.649 517.77 738.219 520.01 741.179 519.81C744.139 519.61 746.379 517.04 746.179 514.08C745.979 511.12 743.409 508.88 740.449 509.08C737.479 509.28 735.239 511.84 735.449 514.81Z" fill="#023E7D"/>
<path d="M739.48 455.68C739.63 457.88 737.96 459.79 735.76 459.94C733.56 460.09 731.65 458.42 731.5 456.22C731.35 454.02 733.02 452.11 735.22 451.96C737.42 451.81 739.33 453.47 739.48 455.68Z" fill="#023E7D"/>
<path d="M705.319 583.04C704.209 583.13 703.249 582.3 703.159 581.2C703.069 580.09 703.899 579.13 704.999 579.04C706.109 578.95 707.069 579.78 707.159 580.88C707.249 581.98 706.429 582.95 705.319 583.04Z" fill="#023E7D"/>
<path d="M694.319 599.03C692.779 599.15 691.439 598 691.319 596.47C691.199 594.93 692.349 593.59 693.879 593.47C695.409 593.35 696.759 594.5 696.879 596.03C697.009 597.56 695.859 598.91 694.319 599.03Z" fill="#0466C8"/>
<path d="M652.431 420.15C649.791 420.36 647.491 418.39 647.281 415.75C647.071 413.11 649.041 410.81 651.681 410.6C654.321 410.39 656.621 412.36 656.831 415C657.041 417.64 655.061 419.94 652.431 420.15Z" fill="#023E7D"/>
<path d="M685.33 522.6C684.29 522.68 683.381 521.9 683.301 520.86C683.221 519.82 684.001 518.91 685.041 518.83C686.081 518.75 686.99 519.53 687.07 520.57C687.15 521.61 686.37 522.52 685.33 522.6Z" fill="#023E7D"/>
<path d="M625.42 216.49C623.36 216.65 621.56 215.12 621.4 213.06C621.24 211 622.77 209.2 624.83 209.04C626.89 208.88 628.69 210.41 628.85 212.47C629.01 214.53 627.47 216.33 625.42 216.49Z" fill="#023E7D"/>
<path d="M649.04 312.56C646.56 312.76 644.391 310.9 644.191 308.42C643.991 305.94 645.851 303.77 648.331 303.57C650.811 303.37 652.981 305.23 653.181 307.71C653.381 310.2 651.52 312.37 649.04 312.56Z" fill="#023E7D"/>
<path d="M194.451 211.13C194.131 213.6 191.861 215.34 189.391 215.01C186.921 214.69 185.181 212.42 185.511 209.95C185.831 207.48 188.101 205.74 190.571 206.07C193.031 206.4 194.771 208.66 194.451 211.13Z" fill="#9BC2E9"/>
<path d="M152.489 281.29C152.009 284.92 148.679 287.48 145.039 287.01C141.409 286.53 138.849 283.2 139.319 279.56C139.799 275.93 143.129 273.37 146.769 273.84C150.409 274.32 152.969 277.65 152.489 281.29Z" fill="#9BC2E9"/>
<path d="M341.461 179.11C339.661 178.89 338.381 177.26 338.601 175.46C338.821 173.66 340.451 172.38 342.251 172.6C344.051 172.82 345.331 174.45 345.111 176.25C344.891 178.04 343.261 179.33 341.461 179.11Z" fill="#0466C8"/>
<path d="M310.28 165.76C309.92 168.48 307.42 170.4 304.7 170.04C301.98 169.68 300.06 167.18 300.42 164.46C300.78 161.74 303.28 159.82 306 160.18C308.72 160.54 310.64 163.04 310.28 165.76Z" fill="#0466C8"/>
<path d="M760.95 326.36C762.27 326.36 763.34 325.29 763.34 323.97C763.34 322.65 762.27 321.58 760.95 321.58C759.63 321.58 758.561 322.65 758.561 323.97C758.561 325.29 759.63 326.36 760.95 326.36Z" fill="#023E7D"/>
<path d="M760.51 273.03C762.34 273.03 763.829 271.544 763.829 269.71C763.829 267.876 762.34 266.39 760.51 266.39C758.68 266.39 757.189 267.876 757.189 269.71C757.189 271.544 758.68 273.03 760.51 273.03Z" fill="#023E7D"/>
<path d="M795.189 380.51C797.859 380.51 800.019 378.348 800.019 375.68C800.019 373.012 797.859 370.85 795.189 370.85C792.519 370.85 790.359 373.012 790.359 375.68C790.359 378.348 792.519 380.51 795.189 380.51Z" fill="#023E7D"/>
<path d="M356.39 503.21C357.61 503.21 358.6 502.221 358.6 501C358.6 499.78 357.61 498.79 356.39 498.79C355.169 498.79 354.18 499.78 354.18 501C354.18 502.221 355.169 503.21 356.39 503.21Z" fill="#68A3DE"/>
<path d="M382.831 566.03C384.554 566.03 385.951 564.633 385.951 562.91C385.951 561.187 384.554 559.79 382.831 559.79C381.108 559.79 379.711 561.187 379.711 562.91C379.711 564.633 381.108 566.03 382.831 566.03Z" fill="#68A3DE"/>
<path d="M289.7 530.19C290.965 530.19 291.99 529.165 291.99 527.9C291.99 526.635 290.965 525.61 289.7 525.61C288.435 525.61 287.41 526.635 287.41 527.9C287.41 529.165 288.435 530.19 289.7 530.19Z" fill="#68A3DE"/>
<path d="M220.24 252.55C222.361 252.55 224.08 250.831 224.08 248.71C224.08 246.589 222.361 244.87 220.24 244.87C218.12 244.87 216.4 246.589 216.4 248.71C216.4 250.831 218.12 252.55 220.24 252.55Z" fill="#68A3DE"/>
<path d="M483.331 296.86C485.319 296.86 486.93 295.248 486.93 293.26C486.93 291.272 485.319 289.66 483.331 289.66C481.342 289.66 479.73 291.272 479.73 293.26C479.73 295.248 481.342 296.86 483.331 296.86Z" fill="#68A3DE"/>
<path d="M619.06 128.85C620.154 128.85 621.04 127.964 621.04 126.87C621.04 125.776 620.154 124.89 619.06 124.89C617.967 124.89 617.08 125.776 617.08 126.87C617.08 127.964 617.967 128.85 619.06 128.85Z" fill="#023E7D"/>
<path d="M303.67 301.75C305.741 301.75 307.42 300.071 307.42 298C307.42 295.929 305.741 294.25 303.67 294.25C301.599 294.25 299.92 295.929 299.92 298C299.92 300.071 301.599 301.75 303.67 301.75Z" fill="#68A3DE"/>
<path d="M660.569 701.64C662.929 701.64 664.849 699.724 664.849 697.36C664.849 694.996 662.929 693.08 660.569 693.08C658.209 693.08 656.289 694.996 656.289 697.36C656.289 699.724 658.209 701.64 660.569 701.64Z" fill="#023E7D"/>
<path d="M313.369 357.3C315.032 357.3 316.379 355.952 316.379 354.29C316.379 352.628 315.032 351.28 313.369 351.28C311.707 351.28 310.359 352.628 310.359 354.29C310.359 355.952 311.707 357.3 313.369 357.3Z" fill="#68A3DE"/>
<path d="M514.281 91.63C511.131 209.91 488.09 538.05 271.49 662.34C258.35 669.88 244.37 676.74 229.48 682.78" stroke="#9DCCD1" stroke-width="0.4196" stroke-miterlimit="10"/>
<path d="M405.17 119.35C409.31 122.34 414.97 126.67 421.33 132.3C432.53 142.22 439.9 150.89 448.18 160.71C452.46 165.78 459.92 174.88 468.65 187C479.37 201.89 486.51 213.75 492.48 223.71C502.74 240.82 509.87 254.6 513.21 261.05C516.66 267.7 519.82 274.1 520.3 275.08C521.86 278.25 525.04 284.74 528.93 293.11C530.55 296.59 533.73 303.5 537.59 312.36C539.39 316.49 542.63 324.01 546.52 333.58C546.52 333.58 549.31 340.44 552.01 347.41C565.96 383.39 576.94 420.15 576.94 420.15C582.54 438.91 586.34 453.71 588.16 461.02C591.37 473.86 593.52 483.65 594.24 487.01C597.72 503.03 599.97 515.7 601.05 522.01C602.64 531.27 605.14 546.03 607.27 565.61C609.16 583.05 609.83 595.77 610.02 599.78C610.54 610.5 610.59 618.2 610.6 620.87C610.62 625.74 610.63 632.76 610.14 642.01C609.89 646.64 609.48 654.15 608.28 663.73C607.44 670.44 606.43 678.42 603.97 688.44C601.74 697.53 599.31 707.18 593.3 718.54C586.81 730.83 580.66 736.57 579.03 738.05C575.13 741.58 571.43 743.98 568.76 745.5" stroke="#6CC9D8" stroke-width="1.6846" stroke-miterlimit="10"/>
<path d="M596.29 716.21C594.54 716 593.289 714.41 593.509 712.66C593.719 710.91 595.31 709.66 597.06 709.88C598.81 710.09 600.061 711.68 599.841 713.43C599.631 715.17 598.04 716.42 596.29 716.21Z" fill="#0466C8"/>
<path d="M604.36 520.32C604.08 522.44 602.14 523.93 600.02 523.65C597.9 523.37 596.41 521.43 596.69 519.31C596.97 517.19 598.91 515.7 601.03 515.98C603.15 516.26 604.64 518.21 604.36 520.32Z" fill="#0466C8"/>
<path d="M588.329 465.37C589.826 465.37 591.039 464.157 591.039 462.66C591.039 461.163 589.826 459.95 588.329 459.95C586.832 459.95 585.619 461.163 585.619 462.66C585.619 464.157 586.832 465.37 588.329 465.37Z" fill="#0466C8"/>
<path d="M554.801 357.76C551.911 357.41 549.841 354.78 550.191 351.89C550.541 349 553.171 346.93 556.061 347.28C558.951 347.63 561.021 350.26 560.671 353.15C560.321 356.05 557.691 358.11 554.801 357.76Z" fill="#0466C8"/>
<path d="M481.34 211.28C484.289 211.28 486.68 208.889 486.68 205.94C486.68 202.991 484.289 200.6 481.34 200.6C478.391 200.6 476 202.991 476 205.94C476 208.889 478.391 211.28 481.34 211.28Z" fill="#68A3DE"/>
<path d="M401.271 121.75C404.342 121.75 406.831 119.261 406.831 116.19C406.831 113.119 404.342 110.63 401.271 110.63C398.2 110.63 395.711 113.119 395.711 116.19C395.711 119.261 398.2 121.75 401.271 121.75Z" fill="#0466C8"/>
<path d="M126.039 328.53C142.769 386.91 187.419 508.68 302.929 571.37C319.539 580.39 341.079 590.06 380.689 600.89C450.939 620.1 572.039 641.33 740.37 613.63" stroke="#9DCCD1" stroke-width="0.4196" stroke-miterlimit="10"/>
<path d="M530.07 629.15C528.07 628.91 526.64 627.09 526.88 625.09C527.12 623.09 528.94 621.66 530.94 621.9C532.94 622.14 534.37 623.96 534.13 625.96C533.88 627.96 532.07 629.39 530.07 629.15Z" fill="#0466C8"/>
<path d="M204.79 495.56C207.794 495.56 210.23 493.124 210.23 490.12C210.23 487.116 207.794 484.68 204.79 484.68C201.785 484.68 199.35 487.116 199.35 490.12C199.35 493.124 201.785 495.56 204.79 495.56Z" fill="#68A3DE"/>
</svg>
